<?xml version="1.0" standalone="no"?>
<!DOCTYPE svg PUBLIC "-//W3C//DTD SVG 20010904//EN"
 "http://www.w3.org/TR/2001/REC-SVG-20010904/DTD/svg10.dtd">
<svg version="1.0" xmlns="http://www.w3.org/2000/svg"
 width="1080.000000pt" height="1350.000000pt" viewBox="0 0 1080.000000 1350.000000"
 preserveAspectRatio="xMidYMid meet">

<g transform="translate(0.000000,1350.000000) scale(0.100000,-0.100000)"
fill="#000000" stroke="none">
<path d="M0 6750 l0 -6750 5400 0 5400 0 0 6750 0 6750 -5400 0 -5400 0 0
-6750z m5064 3651 c3 -4 10 -41 17 -81 13 -89 12 -91 -91 -109 -38 -7 -72 -16
-74 -19 -2 -4 7 -83 20 -176 13 -92 23 -187 22 -210 -1 -43 5 -94 23 -184 6
-30 9 -56 6 -58 -8 -8 -187 -37 -193 -31 -3 3 -24 140 -46 304 -22 164 -42
300 -43 301 -2 2 -41 -10 -87 -27 -52 -19 -86 -27 -92 -21 -13 13 -37 203 -27
213 7 7 503 104 543 106 9 1 19 -3 22 -8z m598 -11 c35 -27 54 -80 77 -207 31
-177 84 -593 77 -601 -8 -7 -206 -3 -218 4 -5 3 -8 41 -8 85 0 43 -3 79 -7 79
-20 -1 -174 -28 -177 -31 -2 -2 -11 -30 -20 -61 l-17 -58 -72 0 c-106 0 -147
9 -147 31 0 39 133 395 213 571 62 137 89 186 108 195 13 7 56 13 95 13 56 0
77 -4 96 -20z m-1250 -190 c15 -41 27 -78 27 -82 1 -5 -68 -42 -151 -84 -84
-42 -155 -78 -157 -80 -5 -5 8 -67 18 -82 6 -11 31 -4 116 32 59 25 111 43
116 40 5 -3 9 0 9 7 0 8 4 8 15 -1 13 -11 13 -14 -2 -26 -17 -12 -17 -13 4
-14 16 0 25 -11 37 -47 9 -26 16 -50 16 -54 0 -4 -56 -37 -124 -73 l-125 -66
16 -45 c8 -25 17 -45 20 -45 3 0 73 27 156 61 82 33 153 57 158 52 12 -12 59
-141 59 -162 0 -14 -53 -40 -237 -119 -131 -56 -244 -102 -252 -102 -8 0 -97
-54 -198 -120 -101 -66 -190 -120 -198 -120 -12 0 -376 684 -383 720 -4 21
147 106 166 94 7 -5 39 -59 71 -119 31 -61 88 -168 125 -240 37 -71 71 -134
76 -139 8 -8 250 130 250 144 0 4 -9 33 -20 66 -43 123 -131 446 -128 467 2
18 41 38 233 119 127 54 237 96 245 95 9 -1 26 -33 42 -77z m2847 -285 c23 -8
56 -24 72 -36 24 -17 28 -24 18 -35 -7 -8 -9 -17 -5 -21 3 -3 6 -1 6 7 0 10 4
10 18 -1 15 -13 16 -12 3 4 -9 11 -9 17 -2 17 6 0 23 -19 38 -42 25 -36 28
-51 28 -119 0 -74 -2 -80 -40 -135 -57 -82 -64 -85 -131 -49 -31 17 -70 42
-87 56 l-32 27 53 55 c59 63 66 93 25 103 -89 23 -297 -191 -319 -328 -5 -30
-2 -38 21 -56 38 -30 69 -28 154 13 47 23 78 32 84 26 16 -16 37 -124 27 -137
-6 -6 -42 -26 -81 -44 -120 -55 -232 -52 -316 9 -88 64 -121 146 -103 257 11
66 65 188 80 179 5 -3 7 0 5 7 -8 20 100 135 163 175 117 75 232 100 321 68z
m-975 -246 c35 -19 56 -52 56 -92 0 -31 -7 -46 -34 -73 -28 -28 -42 -34 -76
-34 -130 0 -136 203 -6 208 21 1 48 -3 60 -9z m-2997 -84 c95 -48 166 -147
179 -251 9 -79 -37 -185 -130 -299 l-24 -30 68 -85 c38 -47 69 -90 70 -96 0
-6 -27 -35 -60 -64 -34 -28 -86 -83 -117 -121 -30 -38 -61 -69 -68 -69 -6 0
-54 36 -104 80 -51 44 -95 80 -97 80 -2 0 14 -37 37 -82 45 -89 51 -138 23
-169 -23 -26 -58 -24 -139 6 -37 14 -69 24 -71 22 -2 -2 32 -32 75 -67 44 -35
77 -68 74 -73 -3 -6 -1 -7 6 -3 22 14 23 -24 0 -61 -39 -66 -91 -124 -105
-119 -28 11 -604 508 -604 522 0 20 75 121 100 134 30 16 24 3 -21 -48 -23
-26 -48 -60 -56 -77 -19 -37 -11 -29 61 63 31 39 63 72 71 72 11 0 197 -70
313 -117 6 -3 -28 66 -78 152 -49 86 -90 160 -90 164 0 4 12 23 26 42 42 56
48 76 12 39 -19 -19 -34 -39 -34 -44 1 -5 -4 -10 -11 -13 -26 -10 -2 43 36 80
43 39 82 48 124 25 12 -6 105 -74 207 -151 232 -176 218 -166 204 -147 -6 8
-82 106 -168 218 -97 125 -154 207 -150 215 25 42 181 231 207 251 71 54 153
61 234 21z m4555 -111 c16 -9 50 -34 74 -56 40 -37 44 -45 44 -89 0 -61 -39
-136 -206 -396 -68 -107 -121 -192 -116 -190 4 2 130 79 279 171 150 91 277
166 282 166 18 0 212 -227 238 -278 45 -92 32 -161 -44 -234 -78 -74 -184
-108 -275 -89 -28 6 -52 10 -53 9 -2 -2 -28 -53 -59 -115 -30 -61 -59 -114
-63 -116 -9 -6 -162 50 -177 64 -5 4 21 66 60 143 l69 135 -26 27 -26 26 -96
-66 c-52 -36 -99 -66 -104 -66 -6 0 -25 22 -43 49 -18 27 -73 83 -122 126 -48
43 -88 81 -88 85 0 3 22 35 49 70 l50 64 -79 49 -79 48 -52 -35 c-37 -25 -57
-32 -68 -26 -9 5 -45 38 -81 74 -64 65 -64 66 -45 85 36 34 317 193 475 268
85 40 173 82 195 93 50 23 49 23 87 4z m826 -1040 c18 -42 32 -83 30 -91 -2
-11 -351 -162 -523 -226 -5 -2 16 -60 48 -128 31 -68 57 -130 57 -136 0 -16 9
-16 40 2 14 8 39 14 56 15 17 0 51 7 75 16 63 24 246 24 321 1 119 -36 187
-119 195 -236 4 -58 2 -72 -24 -120 -65 -124 -296 -212 -523 -199 -95 6 -192
48 -239 104 -40 49 -65 133 -58 195 8 62 25 94 78 147 l44 43 -69 -31 c-38
-17 -75 -29 -82 -26 -6 2 -62 100 -124 217 -106 202 -111 214 -94 227 28 20
715 301 739 301 16 1 28 -15 53 -75z m-6276 31 c118 -30 280 -125 356 -209
141 -154 119 -368 -46 -444 -53 -24 -56 -24 -84 -7 -16 9 -32 14 -35 11 -3 -3
5 -10 18 -15 20 -8 16 -10 -27 -10 -53 -1 -138 22 -164 45 -9 7 -38 23 -65 35
-143 63 -272 212 -291 335 -8 56 17 139 57 188 64 76 164 102 281 71z m-218
-595 c79 -30 81 -34 54 -135 -12 -48 -29 -90 -36 -92 -7 -3 -43 8 -79 25 -36
17 -72 28 -79 25 -8 -3 -14 -19 -14 -36 0 -83 233 -217 379 -217 38 0 81 35
81 66 0 35 -14 59 -73 127 -56 66 -56 65 26 112 l48 28 56 -57 c124 -129 146
-296 52 -409 -48 -58 -99 -80 -199 -85 -162 -8 -299 47 -421 168 -97 96 -124
151 -123 245 2 199 147 302 328 235z m6219 -619 c26 -11 47 -26 47 -33 0 -7
-11 -40 -25 -73 -33 -79 -33 -129 -1 -150 21 -14 28 -14 58 -2 26 11 42 30 67
78 90 172 126 202 241 203 50 1 78 -5 120 -25 105 -49 149 -119 157 -248 4
-66 1 -82 -19 -121 -32 -61 -72 -82 -168 -88 -90 -5 -87 -9 -92 103 l-3 70 40
8 c22 5 50 11 63 13 25 5 30 35 8 53 -8 7 -29 14 -48 17 -47 8 -87 -28 -134
-117 -90 -171 -234 -221 -374 -131 -107 70 -130 255 -55 436 18 43 31 44 118
7z m-5839 -388 c3 -10 6 -58 8 -106 3 -102 3 -102 -86 -112 -34 -4 -64 -9 -67
-11 -4 -2 3 -43 15 -91 l22 -88 55 -9 c30 -4 60 -13 67 -18 8 -7 12 -40 12
-98 0 -66 3 -89 14 -93 8 -3 23 -44 35 -95 26 -109 26 -109 3 -117 -77 -24
-744 -129 -784 -123 -20 3 -26 16 -44 93 -16 67 -19 93 -10 101 6 6 99 23 206
38 107 15 224 33 259 41 35 7 70 11 77 8 6 -2 15 0 19 6 10 17 35 13 36 -6 0
-15 2 -14 11 4 6 12 18 22 27 23 94 5 88 10 -69 44 -139 31 -573 171 -588 189
-14 18 -32 101 -32 148 0 35 6 47 35 75 43 41 111 63 405 134 118 29 238 58
265 65 72 19 103 18 109 -2z m6096 -499 c201 -59 372 -110 381 -115 15 -8 15
-16 2 -91 -9 -46 -20 -88 -27 -95 -8 -8 -43 -2 -141 28 -71 21 -135 38 -141
39 -14 0 -24 -23 -30 -70 -2 -19 -7 -47 -10 -61 -5 -26 -3 -27 130 -64 75 -21
141 -42 148 -46 10 -6 9 -26 -5 -96 -10 -48 -22 -92 -27 -97 -5 -5 -75 10
-172 37 -241 68 -587 152 -595 144 -2 -2 30 -16 69 -32 281 -109 632 -269 636
-290 4 -16 -45 -163 -59 -179 -5 -5 -81 24 -177 67 -94 42 -205 90 -248 107
-43 17 -83 39 -91 48 -7 10 -12 12 -13 5 0 -17 -30 -4 -30 13 0 9 -9 13 -25
12 -14 -1 -25 -5 -25 -9 0 -3 126 -79 280 -168 154 -90 282 -167 286 -172 7
-12 -74 -159 -91 -165 -7 -3 -121 58 -253 135 -132 78 -244 141 -248 141 -5 0
-38 -56 -74 -125 -36 -69 -71 -125 -78 -125 -7 0 -24 7 -37 16 -28 18 -31 11
-10 -26 23 -40 19 -46 -47 -78 -73 -35 -90 -49 -106 -79 -17 -30 -15 -39 10
-63 30 -28 58 -25 173 15 124 43 164 44 232 5 84 -48 138 -144 137 -240 -2
-124 -123 -270 -224 -270 -37 0 -99 32 -148 76 l-44 39 51 68 c29 37 56 67 62
67 6 0 31 -14 55 -31 36 -25 48 -28 59 -19 23 19 18 49 -14 81 -38 37 -64 37
-179 -1 -119 -39 -173 -39 -247 0 l-56 30 64 -78 c35 -42 119 -144 186 -225
l122 -149 -22 -36 c-11 -21 -43 -67 -71 -103 -147 -195 -306 -210 -472 -43
-73 73 -129 165 -157 256 -29 96 -24 232 11 303 27 54 184 215 210 215 8 0 35
-25 59 -55 55 -68 82 -92 48 -42 -54 79 -59 146 -17 232 31 64 102 139 166
176 50 28 54 33 41 48 -13 14 -5 38 74 211 49 107 108 250 131 318 22 67 46
123 52 123 6 1 18 0 25 -1 11 -1 12 2 4 12 -16 21 27 202 49 206 14 3 198 -43
301 -74 16 -5 18 2 15 78 l-3 83 -145 35 c-110 27 -146 40 -148 53 -3 16 26
175 35 190 8 14 42 6 403 -99z m-6206 -600 c32 -63 64 -118 70 -120 7 -3 57
11 111 31 53 19 105 35 115 35 13 0 26 -20 45 -72 15 -40 50 -112 76 -159 27
-48 49 -93 49 -101 0 -8 -27 -33 -61 -57 -33 -23 -59 -46 -57 -50 2 -5 28 -36
60 -70 l56 -62 53 15 c29 9 58 16 65 16 16 0 114 -169 107 -185 -12 -32 -408
-117 -790 -169 -29 -4 -37 1 -71 42 -64 78 -75 116 -51 179 13 35 125 144 317
307 84 71 151 131 149 132 -1 1 -67 -17 -147 -41 -180 -53 -487 -131 -493
-125 -3 3 -46 106 -96 230 -72 178 -89 227 -79 236 17 15 149 54 160 48 5 -3
40 -68 78 -145 39 -76 75 -139 81 -139 19 0 104 23 112 30 5 4 -12 58 -37 119
-25 62 -46 118 -46 126 0 7 24 22 53 33 28 11 59 22 67 25 37 14 46 4 104
-109z m725 -844 c40 -10 78 -23 84 -29 6 -6 0 -32 -18 -78 -15 -37 -38 -101
-50 -141 l-23 -72 29 -21 29 -21 84 76 c46 42 90 76 97 76 18 0 119 -113 119
-132 0 -13 -551 -463 -591 -482 -14 -7 -38 9 -116 76 -162 140 -203 195 -203
273 0 80 69 171 167 220 48 25 69 29 130 29 l72 -1 27 81 c39 117 62 166 76
166 7 0 46 -9 87 -20z m501 -435 c63 -22 137 -81 168 -133 33 -57 35 -134 5
-202 -30 -67 -138 -205 -203 -260 -140 -115 -293 -145 -417 -81 -74 38 -133
122 -133 188 1 59 92 203 129 203 23 0 151 -91 151 -108 0 -8 -16 -32 -35 -53
-37 -42 -42 -58 -23 -77 34 -34 124 4 215 90 71 68 143 169 143 201 0 34 -29
57 -71 57 -47 0 -56 -13 -24 -34 14 -9 25 -21 25 -27 0 -19 -113 -129 -132
-129 -24 0 -119 54 -151 86 -47 47 -42 101 17 171 30 35 116 95 161 111 44 15
126 14 175 -3z m3518 -100 c85 -39 149 -119 226 -282 61 -126 74 -280 32 -368
-80 -170 -280 -193 -417 -49 -120 127 -199 302 -199 444 0 84 13 130 53 182
71 93 197 123 305 73z m-2988 -207 c25 -10 58 -31 73 -46 38 -36 70 -99 64
-128 -2 -13 1 -25 7 -27 15 -5 -7 -127 -31 -175 -11 -20 -37 -71 -59 -112 -49
-96 -156 -205 -238 -245 -148 -72 -313 -3 -356 150 -28 101 36 288 150 438
118 155 251 205 390 145z m2540 10 c5 -13 58 -180 116 -371 90 -295 104 -351
93 -362 -29 -28 -267 -143 -321 -155 -102 -23 -176 18 -228 126 -34 70 -35
200 -2 264 l23 45 -43 39 c-24 21 -70 61 -102 90 l-59 51 7 -45 c33 -207 74
-624 64 -651 -4 -10 -76 -31 -231 -67 -124 -29 -232 -52 -241 -52 -18 0 -23
16 -32 107 l-6 72 144 45 c80 25 150 46 158 46 9 0 11 16 5 68 -4 37 -8 69
-10 71 -2 1 -58 -9 -123 -24 -66 -16 -127 -25 -134 -22 -17 6 -45 155 -31 166
4 4 61 25 126 46 65 21 121 43 123 50 3 7 -4 62 -15 121 -15 84 -17 112 -8
121 7 6 48 18 91 27 89 18 106 12 106 -35 0 -15 5 -31 10 -34 6 -3 10 -2 10 3
0 16 100 142 113 142 7 0 29 -16 48 -36 43 -45 175 -154 186 -154 4 0 19 9 32
19 l24 18 -37 98 c-20 54 -36 106 -36 116 0 12 22 26 78 48 94 36 90 36 102 9z
m-2193 -145 l85 -26 -5 -31 c-13 -80 -271 -734 -293 -743 -15 -6 -181 44 -189
56 -3 5 23 79 58 163 35 84 79 194 97 243 18 50 38 96 44 104 6 7 10 23 11 35
0 14 6 21 17 20 14 -1 15 2 8 16 -7 13 -3 40 14 94 13 41 27 80 31 85 9 16 29
14 122 -16z m492 -110 c80 -14 152 -31 158 -37 10 -9 -9 -92 -88 -381 -55
-203 -102 -371 -104 -374 -9 -8 -329 19 -368 31 -54 17 -113 71 -132 122 -14
37 -15 53 -6 97 17 76 38 115 88 159 l44 39 -20 40 c-24 45 -27 113 -9 173 14
47 81 126 123 144 47 21 155 16 314 -13z"/>
<path d="M4784 9748 c2 -52 10 -79 19 -67 2 2 -3 31 -10 64 l-12 60 3 -57z"/>
<path d="M4790 9646 c0 -14 5 -28 10 -31 6 -4 10 7 10 24 0 17 -4 31 -10 31
-5 0 -10 -11 -10 -24z"/>
<path d="M5507 10023 c-15 -43 -27 -81 -27 -85 0 -5 18 -8 40 -8 40 0 40 0 40
39 0 53 -11 131 -19 131 -4 0 -19 -35 -34 -77z"/>
<path d="M5465 10028 c-16 -35 -34 -75 -41 -90 -7 -16 -10 -28 -6 -28 11 0 86
169 79 177 -2 2 -17 -25 -32 -59z"/>
<path d="M5666 9945 c4 -8 10 -15 15 -15 4 0 6 7 3 15 -4 8 -10 15 -15 15 -4
0 -6 -7 -3 -15z"/>
<path d="M5365 9790 c3 -5 10 -10 16 -10 5 0 9 5 9 10 0 6 -7 10 -16 10 -8 0
-12 -4 -9 -10z"/>
<path d="M5684 9771 c4 -5 2 -20 -3 -34 -8 -20 -5 -28 14 -46 14 -11 27 -32
31 -46 3 -14 11 -25 16 -25 6 0 8 6 5 13 -3 8 -8 39 -12 70 -4 32 -12 57 -17
57 -5 0 -6 5 -3 10 3 6 -3 10 -15 10 -12 0 -19 -4 -16 -9z"/>
<path d="M5306 9735 c-3 -8 -1 -15 4 -15 6 0 10 7 10 15 0 8 -2 15 -4 15 -2 0
-6 -7 -10 -15z"/>
<path d="M4120 10089 c0 -5 5 -7 10 -4 6 3 10 8 10 11 0 2 -4 4 -10 4 -5 0
-10 -5 -10 -11z"/>
<path d="M4156 9702 c-2 -4 -1 -14 5 -22 7 -12 9 -10 9 8 0 23 -5 28 -14 14z"/>
<path d="M4350 9470 c0 -5 5 -10 10 -10 6 0 10 5 10 10 0 6 -4 10 -10 10 -5 0
-10 -4 -10 -10z"/>
<path d="M4225 9410 c3 -5 8 -10 11 -10 2 0 4 5 4 10 0 6 -5 10 -11 10 -5 0
-7 -4 -4 -10z"/>
<path d="M3660 9349 c0 -5 5 -7 10 -4 6 3 10 8 10 11 0 2 -4 4 -10 4 -5 0 -10
-5 -10 -11z"/>
<path d="M3895 9300 c-3 -5 -1 -10 4 -10 6 0 11 5 11 10 0 6 -2 10 -4 10 -3 0
-8 -4 -11 -10z"/>
<path d="M7006 9785 c-3 -8 -1 -15 4 -15 6 0 10 7 10 15 0 8 -2 15 -4 15 -2 0
-6 -7 -10 -15z"/>
<path d="M7278 9663 c7 -3 16 -2 19 1 4 3 -2 6 -13 5 -11 0 -14 -3 -6 -6z"/>
<path d="M7316 9644 c-8 -22 -4 -25 11 -9 7 8 9 16 4 19 -5 3 -12 -1 -15 -10z"/>
<path d="M3148 9398 c-8 -7 -27 -30 -42 -50 l-27 -37 57 -76 c64 -85 67 -85
109 -2 35 70 33 101 -9 143 -36 36 -62 42 -88 22z"/>
<path d="M3215 8893 c44 -81 63 -108 88 -127 51 -38 39 -6 -28 74 -38 44 -70
80 -72 80 -2 0 3 -12 12 -27z"/>
<path d="M2960 8670 c0 -5 5 -10 11 -10 5 0 7 5 4 10 -3 6 -8 10 -11 10 -2 0
-4 -4 -4 -10z"/>
<path d="M2740 8350 c11 -11 20 -24 20 -28 0 -5 19 -19 43 -31 l42 -23 -55 51
c-53 48 -91 72 -50 31z"/>
<path d="M2869 8246 c17 -21 51 -40 51 -29 0 5 -15 17 -32 28 -29 17 -31 17
-19 1z"/>
<path d="M7541 9189 c-46 -22 -81 -42 -78 -45 6 -6 177 72 177 81 0 9 -13 4
-99 -36z"/>
<path d="M7608 9174 c-43 -25 -78 -50 -78 -54 0 -9 48 -50 59 -50 5 0 77 103
95 138 10 17 10 17 -76 -34z"/>
<path d="M7350 9086 c0 -9 5 -16 10 -16 6 0 10 4 10 9 0 6 -4 13 -10 16 -5 3
-10 -1 -10 -9z"/>
<path d="M7260 9080 c-13 -8 -12 -10 3 -10 9 0 17 5 17 10 0 12 -1 12 -20 0z"/>
<path d="M7685 9017 c-10 -8 -14 -17 -9 -20 6 -3 15 3 22 14 14 23 12 24 -13
6z"/>
<path d="M7556 8847 c-21 -17 -27 -29 -22 -42 3 -10 1 -33 -5 -52 -6 -19 -9
-37 -6 -39 8 -8 71 99 69 119 0 10 4 15 10 11 6 -4 9 -1 6 6 -7 22 -21 21 -52
-3z"/>
<path d="M8095 8805 c-33 -19 -64 -36 -70 -38 -14 -6 33 -55 70 -74 63 -33
165 -9 165 39 0 20 -80 108 -98 108 -4 0 -34 -16 -67 -35z"/>
<path d="M8140 8241 c0 -6 5 -13 10 -16 6 -3 10 1 10 9 0 9 -4 16 -10 16 -5 0
-10 -4 -10 -9z"/>
<path d="M8070 8010 c0 -5 5 -10 11 -10 5 0 7 5 4 10 -3 6 -8 10 -11 10 -2 0
-4 -4 -4 -10z"/>
<path d="M8210 7770 c-8 -5 -10 -10 -5 -10 6 0 17 5 25 10 8 5 11 10 5 10 -5
0 -17 -5 -25 -10z"/>
<path d="M8590 7700 c-143 -18 -250 -52 -269 -88 -11 -22 2 -58 29 -72 51 -27
303 6 403 54 126 61 22 128 -163 106z"/>
<path d="M8235 7660 c-4 -6 -3 -16 3 -22 6 -6 12 -6 17 2 4 6 3 16 -3 22 -6 6
-12 6 -17 -2z"/>
<path d="M8700 7550 c0 -5 5 -10 10 -10 6 0 10 5 10 10 0 6 -4 10 -10 10 -5 0
-10 -4 -10 -10z"/>
<path d="M8547 7517 c-3 -8 1 -14 9 -14 8 0 14 6 14 14 0 7 -4 13 -9 13 -5 0
-11 -6 -14 -13z"/>
<path d="M8457 7489 c4 -13 8 -18 11 -10 2 7 -1 18 -6 23 -8 8 -9 4 -5 -13z"/>
<path d="M8300 7439 c0 -11 5 -17 10 -14 6 3 10 13 10 21 0 8 -4 14 -10 14 -5
0 -10 -9 -10 -21z"/>
<path d="M8405 7430 c3 -5 8 -10 11 -10 2 0 4 5 4 10 0 6 -5 10 -11 10 -5 0
-7 -4 -4 -10z"/>
<path d="M8436 7425 c-3 -9 0 -15 9 -15 16 0 20 16 6 24 -5 3 -11 -1 -15 -9z"/>
<path d="M8560 7400 c0 -5 -7 -7 -15 -4 -8 4 -15 2 -15 -4 0 -6 12 -9 28 -7
15 1 30 -2 34 -9 5 -7 8 -5 8 5 0 9 -7 20 -16 23 -21 8 -24 8 -24 -4z"/>
<path d="M8320 7389 c0 -5 5 -7 10 -4 6 3 10 8 10 11 0 2 -4 4 -10 4 -5 0 -10
-5 -10 -11z"/>
<path d="M8470 7370 c19 -13 30 -13 30 0 0 6 -10 10 -22 10 -19 0 -20 -2 -8
-10z"/>
<path d="M2140 8371 c0 -6 4 -13 10 -16 6 -3 7 1 4 9 -7 18 -14 21 -14 7z"/>
<path d="M2558 8350 c-3 -8 -1 -23 4 -34 8 -15 12 -16 19 -5 7 11 9 10 9 -4 0
-10 4 -16 10 -12 13 8 1 35 -15 35 -8 0 -15 8 -17 18 -3 14 -5 14 -10 2z"/>
<path d="M2360 8289 c0 -5 5 -7 10 -4 6 3 10 8 10 11 0 2 -4 4 -10 4 -5 0 -10
-5 -10 -11z"/>
<path d="M2650 8285 c0 -7 -6 -16 -12 -19 -7 -2 -2 -3 12 -1 14 2 28 4 33 4
15 2 6 19 -13 24 -13 3 -20 0 -20 -8z"/>
<path d="M2229 8274 c-34 -42 82 -153 244 -235 111 -55 149 -61 172 -25 20 30
9 60 -37 102 -40 38 -131 100 -158 109 -11 4 -17 11 -14 17 4 6 2 8 -3 5 -6
-4 -35 4 -65 18 -61 29 -119 32 -139 9z"/>
<path d="M2640 8220 c0 -13 5 -18 15 -14 12 5 13 10 4 20 -15 19 -19 18 -19
-6z"/>
<path d="M2595 8189 c-4 -6 -5 -12 -2 -15 2 -3 7 2 10 11 7 17 1 20 -8 4z"/>
<path d="M2660 8190 c0 -5 5 -10 10 -10 6 0 10 5 10 10 0 6 -4 10 -10 10 -5 0
-10 -4 -10 -10z"/>
<path d="M2729 8114 c-12 -14 -11 -16 5 -13 11 2 21 10 24 17 5 17 -13 15 -29
-4z"/>
<path d="M2740 8022 c0 -5 7 -9 15 -9 8 0 12 4 9 9 -3 4 -9 8 -15 8 -5 0 -9
-4 -9 -8z"/>
<path d="M2640 7914 c0 -9 5 -14 12 -12 18 6 21 28 4 28 -9 0 -16 -7 -16 -16z"/>
<path d="M2077 7794 c-13 -13 -7 -24 13 -24 11 0 20 5 20 11 0 5 -4 8 -9 5 -5
-4 -11 -1 -13 5 -2 5 -7 7 -11 3z"/>
<path d="M2070 7739 c0 -5 5 -7 10 -4 6 3 10 8 10 11 0 2 -4 4 -10 4 -5 0 -10
-5 -10 -11z"/>
<path d="M2028 7443 c7 -3 16 -2 19 1 4 3 -2 6 -13 5 -11 0 -14 -3 -6 -6z"/>
<path d="M8405 6870 c-3 -5 -1 -10 4 -10 6 0 11 5 11 10 0 6 -2 10 -4 10 -3 0
-8 -4 -11 -10z"/>
<path d="M8431 6864 c0 -11 3 -14 6 -6 3 7 2 16 -1 19 -3 4 -6 -2 -5 -13z"/>
<path d="M2443 6791 c-35 -9 -63 -21 -63 -28 0 -7 -6 -10 -14 -7 -13 5 -31
-24 -21 -34 3 -3 5 -1 5 5 0 9 31 9 71 1 7 -2 18 7 23 19 6 12 23 28 38 34 16
6 28 15 28 20 0 5 -1 8 -2 8 -2 -1 -31 -9 -65 -18z"/>
<path d="M2190 6710 c-8 -5 -11 -12 -7 -16 4 -4 13 -2 19 4 15 15 7 24 -12 12z"/>
<path d="M2112 6573 c-35 -8 -61 -17 -59 -20 6 -6 147 -43 165 -43 7 0 12 15
12 40 0 37 -2 40 -27 39 -16 0 -56 -8 -91 -16z"/>
<path d="M2074 6511 c3 -4 27 -14 53 -21 27 -7 53 -16 58 -20 12 -9 82 -25 75
-17 -5 5 -177 67 -186 67 -3 0 -3 -4 0 -9z"/>
<path d="M2370 6420 c0 -5 5 -10 10 -10 6 0 10 5 10 10 0 6 -4 10 -10 10 -5 0
-10 -4 -10 -10z"/>
<path d="M2430 6366 c0 -2 7 -7 16 -10 8 -3 12 -2 9 4 -6 10 -25 14 -25 6z"/>
<path d="M2538 6183 c7 -3 16 -2 19 1 4 3 -2 6 -13 5 -11 0 -14 -3 -6 -6z"/>
<path d="M2305 6130 c3 -5 11 -10 16 -10 6 0 7 5 4 10 -3 6 -11 10 -16 10 -6
0 -7 -4 -4 -10z"/>
<path d="M1830 6001 c0 -5 5 -13 10 -16 6 -3 10 -2 10 4 0 5 -4 13 -10 16 -5
3 -10 2 -10 -4z"/>
<path d="M2205 5980 c-3 -6 1 -7 9 -4 18 7 21 14 7 14 -6 0 -13 -4 -16 -10z"/>
<path d="M2253 5983 c9 -2 25 -2 35 0 9 3 1 5 -18 5 -19 0 -27 -2 -17 -5z"/>
<path d="M2070 5968 c-36 -5 -74 -9 -84 -9 -14 0 -16 -3 -8 -11 10 -10 77 -2
182 22 34 8 34 8 5 8 -16 -1 -59 -5 -95 -10z"/>
<path d="M1845 5953 c3 -8 5 -20 5 -27 0 -10 14 -11 56 -5 70 9 77 16 28 25
-22 3 -43 9 -49 12 -21 12 -46 9 -40 -5z"/>
<path d="M8606 6041 c-4 -7 -5 -15 -2 -18 9 -9 19 4 14 18 -4 11 -6 11 -12 0z"/>
<path d="M8414 5741 c6 -9 90 -51 103 -51 11 0 -55 40 -84 51 -14 5 -22 5 -19
0z"/>
<path d="M8110 5700 c11 -7 11 -10 2 -10 -7 0 -10 -5 -6 -11 4 -8 9 -7 15 2
13 21 11 29 -8 29 -15 0 -16 -2 -3 -10z"/>
<path d="M8148 5693 c7 -3 16 -2 19 1 4 3 -2 6 -13 5 -11 0 -14 -3 -6 -6z"/>
<path d="M8534 5681 c3 -4 27 -16 53 -26 26 -10 55 -24 64 -31 8 -8 25 -14 37
-14 12 0 22 -4 22 -10 0 -5 5 -10 10 -10 17 0 11 20 -7 27 -10 3 -43 17 -73
30 -66 30 -112 45 -106 34z"/>
<path d="M8336 5625 c4 -8 11 -15 16 -15 6 0 5 6 -2 15 -7 8 -14 15 -16 15 -2
0 -1 -7 2 -15z"/>
<path d="M8740 5603 c0 -12 91 -96 97 -89 3 3 3 6 -1 6 -4 0 -2 9 4 20 11 20
12 20 -82 62 -10 4 -18 5 -18 1z"/>
<path d="M8811 5484 c0 -11 3 -14 6 -6 3 7 2 16 -1 19 -3 4 -6 -2 -5 -13z"/>
<path d="M8250 5479 c0 -5 5 -7 10 -4 6 3 10 8 10 11 0 2 -4 4 -10 4 -5 0 -10
-5 -10 -11z"/>
<path d="M7727 4853 c-4 -6 -3 -14 3 -18 6 -4 8 -11 5 -16 -4 -5 -2 -9 3 -9 6
0 13 7 16 16 3 8 2 12 -3 9 -5 -3 -11 3 -13 12 -2 12 -6 14 -11 6z"/>
<path d="M7570 4770 c0 -5 5 -10 10 -10 6 0 10 5 10 10 0 6 -4 10 -10 10 -5 0
-10 -4 -10 -10z"/>
<path d="M7537 4563 c-35 -69 -29 -120 24 -226 16 -32 26 -63 23 -69 -5 -7 -2
-9 8 -6 15 6 44 -27 30 -35 -4 -2 -1 -2 6 0 8 2 26 -6 42 -17 29 -21 66 -26
88 -12 6 5 23 23 36 41 25 33 24 59 0 74 -25 15 -184 215 -184 231 0 9 -7 16
-15 16 -9 0 -18 7 -21 15 -9 23 -22 18 -37 -12z"/>
<path d="M7906 4407 c3 -10 9 -15 12 -12 3 3 0 11 -7 18 -10 9 -11 8 -5 -6z"/>
<path d="M7450 4302 c0 -12 19 -26 26 -19 2 2 -2 10 -11 17 -9 8 -15 8 -15 2z"/>
<path d="M7495 4280 c-3 -5 -1 -10 4 -10 6 0 11 5 11 10 0 6 -2 10 -4 10 -3 0
-8 -4 -11 -10z"/>
<path d="M7645 4090 c-3 -5 -1 -10 4 -10 6 0 11 5 11 10 0 6 -2 10 -4 10 -3 0
-8 -4 -11 -10z"/>
<path d="M2747 5428 c-66 -58 -74 -83 -24 -73 33 7 60 32 51 47 -3 4 5 22 16
39 12 16 20 32 18 34 -2 2 -29 -19 -61 -47z"/>
<path d="M2561 5251 c-10 -6 -10 -10 -1 -16 13 -8 24 -1 19 14 -3 6 -10 7 -18
2z"/>
<path d="M2620 5249 c0 -5 5 -7 10 -4 6 3 10 8 10 11 0 2 -4 4 -10 4 -5 0 -10
-5 -10 -11z"/>
<path d="M2576 5104 c-37 -31 -66 -57 -64 -59 4 -4 170 34 176 40 4 3 -36 75
-42 75 -1 0 -33 -25 -70 -56z"/>
<path d="M2855 5081 c-3 -5 -1 -12 5 -16 5 -3 10 1 10 9 0 18 -6 21 -15 7z"/>
<path d="M2612 5036 c-35 -6 -61 -14 -58 -17 5 -5 168 16 190 25 21 8 -69 3
-132 -8z"/>
<path d="M2874 4489 c-41 -12 -68 -42 -59 -68 5 -17 50 -54 101 -84 6 -4 42
16 79 45 76 57 76 59 -10 99 -44 20 -64 22 -111 8z"/>
<path d="M3372 4314 c-18 -24 -31 -44 -28 -44 7 0 69 81 65 84 -2 2 -19 -16
-37 -40z"/>
<path d="M7196 4357 c3 -10 9 -15 12 -12 3 3 0 11 -7 18 -10 9 -11 8 -5 -6z"/>
<path d="M7080 4295 c0 -8 7 -15 15 -15 8 0 15 7 15 15 0 8 -7 15 -15 15 -8 0
-15 -7 -15 -15z"/>
<path d="M7042 4204 c-28 -19 -29 -69 -1 -144 11 -30 21 -59 22 -65 6 -24 104
-178 130 -205 38 -39 74 -40 88 -2 24 62 -72 301 -157 389 -45 48 -50 50 -82
27z"/>
<path d="M6895 4180 c-4 -6 6 -10 22 -10 22 0 25 2 13 10 -19 12 -27 12 -35 0z"/>
<path d="M6916 4072 c-3 -5 1 -9 9 -9 8 0 15 4 15 9 0 4 -4 8 -9 8 -6 0 -12
-4 -15 -8z"/>
<path d="M6927 4033 c3 -7 6 -13 8 -13 2 0 5 6 8 13 3 8 -1 14 -8 14 -7 0 -11
-6 -8 -14z"/>
<path d="M6995 4040 c-3 -5 -2 -10 4 -10 5 0 13 5 16 10 3 6 2 10 -4 10 -5 0
-13 -4 -16 -10z"/>
<path d="M6887 3995 c-4 -8 -2 -17 3 -20 6 -4 10 3 10 14 0 25 -6 27 -13 6z"/>
<path d="M7035 3960 c3 -5 13 -10 21 -10 8 0 14 5 14 10 0 6 -9 10 -21 10 -11
0 -17 -4 -14 -10z"/>
<path d="M6924 3938 c1 -7 5 -18 9 -25 4 -6 6 -17 4 -25 -2 -7 -2 -10 0 -5 3
4 9 5 14 1 5 -3 9 6 9 20 0 19 -4 24 -15 20 -11 -5 -13 -2 -9 10 3 9 2 16 -4
16 -6 0 -9 -6 -8 -12z"/>
<path d="M4012 4101 c7 -11 15 -18 20 -15 11 7 -3 34 -18 34 -12 0 -12 -4 -2
-19z"/>
<path d="M3844 4037 c-8 -21 2 -35 16 -21 5 5 6 15 0 24 -8 12 -10 12 -16 -3z"/>
<path d="M3907 4023 c-11 -11 -8 -20 7 -20 8 0 12 6 9 14 -6 15 -7 15 -16 6z"/>
<path d="M4207 4023 c-12 -11 -8 -23 8 -23 8 0 15 7 15 15 0 16 -12 20 -23 8z"/>
<path d="M4055 4002 c-30 -18 -93 -96 -130 -159 -10 -18 -21 -30 -25 -28 -3 2
-6 -4 -7 -13 0 -9 -12 -44 -27 -77 -45 -104 -28 -159 39 -131 80 34 235 277
235 369 0 31 -4 39 -26 47 -31 12 -24 13 -59 -8z"/>
<path d="M3816 3955 c-20 -21 -21 -36 -1 -29 8 4 13 10 10 14 -3 5 1 10 7 13
7 2 10 7 7 11 -4 4 -14 0 -23 -9z"/>
<path d="M3938 3958 c5 -5 16 -8 23 -6 8 3 3 7 -10 11 -17 4 -21 3 -13 -5z"/>
<path d="M4315 3949 c-4 -6 -5 -12 -2 -15 2 -3 7 2 10 11 7 17 1 20 -8 4z"/>
<path d="M3900 3876 c0 -8 4 -17 9 -21 6 -3 9 4 8 15 -1 23 -17 28 -17 6z"/>
<path d="M4255 3830 c-3 -5 -1 -10 4 -10 6 0 11 5 11 10 0 6 -2 10 -4 10 -3 0
-8 -4 -11 -10z"/>
<path d="M3830 3729 c0 -5 5 -7 10 -4 6 3 10 8 10 11 0 2 -4 4 -10 4 -5 0 -10
-5 -10 -11z"/>
<path d="M3762 3514 c-7 -8 -8 -14 -3 -14 10 0 25 19 20 25 -2 1 -10 -3 -17
-11z"/>
<path d="M6643 3690 c-46 -34 -73 -82 -73 -130 0 -45 16 -70 45 -70 29 0 126
60 121 75 -2 6 -12 43 -22 83 -10 39 -21 72 -24 72 -3 0 -24 -14 -47 -30z"/>
<path d="M4440 4000 c0 -5 5 -10 10 -10 6 0 10 5 10 10 0 6 -4 10 -10 10 -5 0
-10 -4 -10 -10z"/>
<path d="M4370 3770 c-8 -5 -10 -10 -5 -10 6 0 17 5 25 10 8 5 11 10 5 10 -5
0 -17 -5 -25 -10z"/>
<path d="M4500 3715 c-5 -14 -17 -40 -26 -58 -15 -28 -15 -30 -1 -19 8 7 22
33 31 58 16 46 12 62 -4 19z"/>
<path d="M4455 3609 c-4 -6 -5 -12 -2 -15 2 -3 7 2 10 11 7 17 1 20 -8 4z"/>
<path d="M4424 3543 c-8 -21 -22 -56 -31 -78 -8 -22 -19 -48 -24 -57 -5 -11
-5 -19 1 -23 10 -6 30 34 30 59 0 6 9 28 19 49 20 40 35 87 26 87 -2 0 -12
-17 -21 -37z"/>
<path d="M4326 3328 c-36 -39 -38 -42 -20 -55 26 -19 27 -18 47 32 26 63 18
70 -27 23z"/>
<path d="M5014 3845 c-9 -37 2 -41 14 -6 7 18 7 31 2 31 -5 0 -12 -11 -16 -25z"/>
<path d="M4863 3740 c-29 -13 -44 -27 -49 -44 -10 -40 10 -56 71 -56 l53 0 11
44 c6 25 11 52 11 60 0 22 -45 20 -97 -4z"/>
<path d="M5061 3744 c0 -11 3 -14 6 -6 3 7 2 16 -1 19 -3 4 -6 -2 -5 -13z"/>
<path d="M4793 3449 c-35 -10 -63 -42 -63 -71 0 -23 38 -38 94 -38 l42 0 16
60 16 60 -37 -1 c-20 0 -50 -5 -68 -10z"/>
</g>
</svg>
