<svg version="1.1" id="Layer_1" xmlns="http://www.w3.org/2000/svg" xmlns:xlink="http://www.w3.org/1999/xlink" x="0px" y="0px"
	 width="100%" viewBox="0 0 816 1024" enable-background="new 0 0 816 1024" xml:space="preserve">
<path fill="#000000" opacity="1.000000" stroke="none" 
	d="
M500.977661,722.952942 
	C500.716034,724.488586 501.848572,726.340332 499.302887,727.925415 
	C496.107666,722.368225 489.917084,719.913269 485.804016,715.085632 
	C483.571198,712.464844 480.285675,712.159973 478.647461,714.638000 
	C475.334991,719.648560 470.756439,719.362488 465.902588,719.321594 
	C454.516663,719.225586 455.207214,717.870056 455.298431,730.076843 
	C455.326874,733.884949 455.302826,737.693542 455.302826,741.406738 
	C450.571259,743.176697 446.526733,746.360168 441.256256,745.394653 
	C440.589722,745.272522 439.469238,745.754700 439.075867,746.317871 
	C436.463409,750.058228 436.775970,754.195496 438.095551,758.226379 
	C439.324982,761.981812 441.171417,765.323303 446.100037,764.742188 
	C450.515961,764.221436 454.939728,763.767212 459.239197,763.296875 
	C460.154022,764.452698 459.918945,765.949158 459.178406,766.106079 
	C455.467499,766.892456 452.825134,769.937622 448.876923,770.360718 
	C437.145355,771.617676 433.346130,779.619019 439.342682,790.020691 
	C439.886780,790.964539 440.221069,791.788940 439.428864,793.070129 
	C436.884155,793.998779 433.645508,790.449585 430.857391,794.658752 
	C427.586151,799.597290 426.613922,804.272461 428.438232,809.695862 
	C429.234131,812.061951 430.242035,814.356201 431.054535,816.717224 
	C432.612122,821.243286 431.256683,824.454285 426.615540,824.622620 
	C417.163513,824.965454 407.648987,824.577515 398.410614,822.132263 
	C395.088287,821.252930 393.604675,818.746399 393.987488,815.253235 
	C394.205109,813.267517 394.374268,811.276123 394.616486,809.293579 
	C394.867310,807.240601 394.932617,805.249146 393.009186,803.873840 
	C391.175781,802.562866 389.602325,803.567993 387.913818,804.397644 
	C382.984650,806.819702 377.400269,804.817261 374.081635,799.540283 
	C374.778931,797.695740 376.568939,798.264099 377.903778,797.838745 
	C379.575989,797.305969 380.547302,796.192139 379.971222,794.472778 
	C379.422363,792.834717 377.727448,792.693054 376.657684,793.516235 
	C373.846222,795.679871 370.007233,792.967773 367.632538,795.330444 
	C364.786255,798.162292 368.309692,801.211731 368.112915,804.273987 
	C367.892242,807.707825 366.307556,810.044373 363.276398,811.191772 
	C358.737854,812.909546 354.244080,813.391724 350.179230,809.704041 
	C346.147400,806.046265 342.513855,801.803589 336.727600,800.628235 
	C334.426178,800.160706 332.497314,800.219971 330.699432,801.859375 
	C327.770569,804.529724 323.991943,804.584290 320.372528,804.928711 
	C318.035309,805.151123 316.284637,804.132019 315.172272,801.860046 
	C312.026947,795.435852 309.107727,793.837585 302.099548,795.311890 
	C294.262939,796.960510 286.364319,798.128235 278.446106,799.235229 
	C270.300781,800.373962 262.343689,799.186035 254.209686,798.469727 
	C242.806900,797.465576 234.552963,791.122559 225.434555,785.961121 
	C220.360779,783.089050 215.477936,779.874390 209.999069,777.774841 
	C199.995132,773.941345 193.453629,765.585693 185.639328,758.940918 
	C172.151459,747.471558 162.246277,732.546753 149.446640,720.451294 
	C138.173523,709.798584 132.165390,695.676819 123.183853,683.551636 
	C121.857101,681.760437 121.529160,679.600647 120.964951,677.503967 
	C120.101913,674.296875 119.436028,670.912720 117.878189,668.042419 
	C114.655960,662.105286 113.664116,655.921021 113.800415,649.265320 
	C113.915916,643.625549 113.183441,637.973389 113.022903,632.321106 
	C112.926178,628.915710 113.541710,625.445557 116.333801,623.215820 
	C121.277893,619.267517 123.116508,614.022522 123.934753,608.037842 
	C124.751839,602.061523 126.579254,596.631531 133.245361,594.492737 
	C135.226990,593.856934 135.736069,592.058777 135.485382,589.984741 
	C135.029770,586.215271 134.718033,582.428345 134.218704,577.352112 
	C138.599152,580.716064 143.041962,581.441833 147.858047,580.707581 
	C146.030716,583.250916 142.040634,580.600464 141.009033,584.575989 
	C140.413574,586.870728 139.116135,589.457703 140.301895,591.299744 
	C143.105621,595.655029 144.347733,600.617798 146.324036,605.250916 
	C148.117737,609.455994 151.323578,613.125366 151.334396,618.264099 
	C151.337906,619.939941 152.563370,623.186462 155.362305,623.741577 
	C160.656509,624.791687 166.197388,624.687134 170.662262,621.764954 
	C172.808655,620.360229 174.580673,619.827942 176.842270,619.736023 
	C179.751724,619.617859 182.698792,620.258301 185.047501,617.350708 
	C186.049377,616.110413 188.836365,615.879883 189.957947,617.618958 
	C191.428558,619.899231 188.590286,619.790466 187.615479,620.828430 
	C181.307419,627.544739 173.169144,632.460754 168.215454,640.497559 
	C165.263885,645.286133 165.763397,652.002258 169.354996,655.981140 
	C175.125931,662.374329 187.575363,664.101624 195.126266,659.520508 
	C196.836777,658.482788 198.740570,658.575806 200.471619,658.875977 
	C209.026276,660.358826 216.485474,654.926697 224.836929,655.174011 
	C226.715607,655.229675 227.808197,653.433044 228.954025,652.245911 
	C230.382767,652.940857 230.356033,653.960083 229.884079,654.886475 
	C227.196198,660.162231 226.865524,668.214539 217.410828,665.671570 
	C214.997620,670.506531 208.551468,666.247437 205.723267,671.131287 
	C203.403107,675.137817 199.054108,678.029541 197.011505,682.118347 
	C195.268433,685.607727 195.588364,689.807556 197.455383,694.025024 
	C201.369598,702.866821 209.817505,706.800598 215.976028,713.156982 
	C219.577728,716.874329 223.189407,718.130371 226.496490,715.687012 
	C228.929642,713.889404 231.708954,712.621033 234.128754,710.188232 
	C235.566376,712.462952 235.722534,714.389587 234.586823,716.431274 
	C230.428009,723.907776 236.968964,735.707703 244.492767,739.015869 
	C255.854034,744.011230 265.389709,741.437134 275.166321,735.950317 
	C275.664307,735.670898 276.419800,735.850342 277.631653,735.785095 
	C275.537109,740.969360 276.107269,746.074280 276.156647,751.109985 
	C276.239471,759.562622 284.436035,767.613586 292.910004,767.881531 
	C294.908905,767.944702 297.001282,767.626221 298.890076,768.110168 
	C304.392456,769.520020 308.246307,767.061340 311.540222,763.169678 
	C312.817566,761.660522 314.329254,760.075562 316.094910,761.354736 
	C318.096954,762.805054 316.860687,764.435364 315.672760,766.372375 
	C310.658081,774.548950 312.329346,777.867493 322.044525,780.216431 
	C323.329132,780.526978 324.627625,780.981262 325.773956,781.627502 
	C330.360992,784.213501 333.508514,781.461060 333.918335,777.806213 
	C334.410065,773.420898 338.163208,771.192749 338.545868,766.566956 
	C340.809845,768.688477 340.072815,770.755859 340.134827,772.547363 
	C340.426086,780.958008 345.679993,785.529785 353.936310,786.952515 
	C361.270020,788.216248 368.427216,790.005493 375.976013,790.045776 
	C381.119415,790.073120 383.372467,788.580566 383.955872,783.170410 
	C384.374969,779.284180 386.703918,775.640930 387.574646,771.627991 
	C388.597839,766.912170 391.011932,762.416077 391.509033,757.686584 
	C392.347321,749.710754 395.529419,742.494751 397.817474,735.024231 
	C399.734711,728.764465 398.653534,726.325928 392.088104,726.276428 
	C388.816528,726.251770 385.506622,726.741272 383.081787,723.458252 
	C382.143921,722.188416 380.064972,722.304565 378.366394,722.304138 
	C372.866791,722.302734 367.366150,722.304016 361.868011,722.197510 
	C358.964691,722.141235 356.242889,722.255310 354.827454,727.011230 
	C354.919373,718.253174 354.559326,717.833252 346.788239,716.273071 
	C345.961731,716.107117 345.261505,715.927307 344.625580,715.254395 
	C341.588867,712.041138 338.331909,712.392212 335.063049,714.887878 
	C332.769501,716.639099 330.742737,716.998047 329.816010,713.657898 
	C328.697723,709.627075 325.634338,708.116394 322.322266,706.026184 
	C317.396790,702.917725 312.416382,703.354065 307.261749,703.290649 
	C305.413818,703.267944 303.837402,703.605225 302.224976,704.894287 
	C299.098297,707.394104 296.754242,706.356384 296.741913,702.457947 
	C296.712677,693.201538 292.022766,687.867981 283.931854,683.771851 
	C280.827576,682.200195 278.073303,681.505981 274.917114,681.134583 
	C272.939209,680.901794 271.301056,680.097717 270.897125,677.998047 
	C269.915649,672.895935 265.832336,670.019043 262.663116,666.553284 
	C260.745148,664.455872 258.367493,664.936218 255.985382,666.558655 
	C252.696365,668.798767 249.410706,671.017578 246.142853,674.509888 
	C244.468140,668.300598 246.631760,663.439087 249.078125,659.109375 
	C251.969681,653.991943 250.649384,649.701172 244.853455,649.408508 
	C241.179108,649.222961 239.917664,647.688538 239.700989,644.272766 
	C239.357666,638.860657 235.795517,634.985535 232.723587,630.950989 
	C230.979721,628.660583 228.623947,629.132324 226.382202,630.196716 
	C223.859161,631.394531 221.503708,631.334656 219.524612,629.257996 
	C217.243851,626.864868 215.828903,625.041565 220.073303,622.432739 
	C224.437317,619.750488 227.349121,617.880432 221.136566,611.668457 
	C221.115402,614.694824 223.922882,617.706177 220.449570,619.896973 
	C218.100189,621.378784 215.862610,623.037781 213.164948,624.900818 
	C215.899200,628.025146 218.320038,630.923096 220.892380,633.679626 
	C222.354980,635.246948 224.119934,634.159119 225.550171,633.554443 
	C230.026047,631.661743 232.907471,632.967468 234.536957,637.472473 
	C234.872284,638.399597 235.457947,639.242981 235.975616,640.096191 
	C240.269699,647.173523 240.337387,647.388977 232.551743,649.691345 
	C215.275696,654.800232 197.548416,657.728210 179.694534,659.855774 
	C173.793808,660.558960 172.214661,655.251099 169.562149,651.617554 
	C167.059280,648.188965 167.379181,644.861084 169.922562,641.520630 
	C175.730972,633.892212 183.428741,628.236145 190.321411,621.738037 
	C193.637573,618.611755 197.681778,616.215759 199.927521,611.582092 
	C193.430420,613.339661 186.941544,615.128296 180.433929,616.846008 
	C173.844437,618.585510 167.233887,620.245056 160.637939,621.960388 
	C158.529404,622.508789 156.600906,622.567627 155.603027,620.162842 
	C151.529968,610.347046 146.451721,600.963135 143.397949,590.698669 
	C142.343307,587.153748 143.599197,585.962646 146.580078,584.874695 
	C155.268448,581.703552 155.472900,581.732544 159.294266,590.093262 
	C160.400238,592.513062 161.670349,594.857910 162.777618,597.277100 
	C166.298248,604.969116 166.873337,605.193359 175.607147,601.557556 
	C173.870773,597.304382 172.231186,592.990417 170.354462,588.782227 
	C168.749695,585.183899 168.799896,582.835327 173.181747,581.120178 
	C181.814453,577.741150 182.034912,577.625244 185.792358,585.985962 
	C186.333557,587.190125 186.973145,588.350037 188.070419,589.364990 
	C188.697678,584.128113 184.443619,580.345337 183.423340,575.705994 
	C186.540085,573.455688 189.669891,572.583008 193.338562,572.600403 
	C202.516525,572.643982 205.070755,567.686584 202.550049,559.065674 
	C201.036438,553.888977 199.474075,548.396057 199.616882,542.683350 
	C199.806259,535.107971 199.428864,534.779358 192.257568,534.331970 
	C187.891632,534.059570 187.657578,530.411377 186.965851,527.778564 
	C186.127823,524.588989 189.233292,524.867065 191.306503,524.618652 
	C195.278641,524.142578 197.145630,522.152100 196.762146,517.940979 
	C196.461060,514.634888 196.453232,511.257507 196.757385,507.952515 
	C197.117783,504.036072 195.949341,501.222290 192.565552,499.739838 
	C181.416809,502.548584 170.502945,505.298157 159.388718,508.098206 
	C159.257965,505.294708 160.848953,504.627075 162.491776,504.510925 
	C166.379578,504.236084 168.963425,501.260681 172.381302,499.998322 
	C174.622940,499.170380 174.624298,497.106934 173.949966,494.905853 
	C172.560699,490.371216 172.758728,485.344421 168.628418,481.182159 
	C173.612534,479.083984 177.957733,480.060730 182.128769,479.709167 
	C185.860825,479.394623 190.319946,481.026550 193.089630,477.853302 
	C198.653976,471.478058 206.249512,465.868103 204.606491,455.757202 
	C203.876038,451.261993 202.067947,447.117340 198.852448,443.641144 
	C203.122925,453.546967 205.159363,463.279358 196.851547,471.987610 
	C192.167389,476.897583 185.898865,478.038025 179.414902,478.034424 
	C179.038940,476.008087 180.115906,475.526489 180.679855,474.762390 
	C183.376801,471.108093 182.980087,468.884369 179.006271,466.777374 
	C175.631821,464.988159 172.232513,463.188629 168.688110,461.788910 
	C161.049957,458.772522 155.547501,452.813751 149.269897,447.951538 
	C147.117874,446.284760 146.648819,443.136414 146.967453,440.569031 
	C147.257278,438.233856 147.242111,436.029144 147.122787,433.706085 
	C146.822617,427.861664 152.170105,427.591644 155.659286,426.458832 
	C160.629318,424.845306 165.493515,426.854584 169.870773,429.555328 
	C171.024643,430.267273 172.169678,431.257202 171.791428,432.767303 
	C170.861450,436.480011 169.864532,440.185486 168.662079,443.816925 
	C167.917740,446.064789 166.185089,446.222351 164.220184,445.177246 
	C162.457047,444.239441 160.700623,443.271423 158.868317,442.487091 
	C157.552536,441.923859 155.980133,440.920074 154.799240,442.568848 
	C153.805344,443.956573 154.414154,445.477173 155.213959,446.797485 
	C157.551437,450.656158 161.249023,452.907501 165.050934,455.040558 
	C170.521240,458.109589 176.336441,459.887238 182.647247,459.877380 
	C184.937897,459.873779 186.994064,459.337036 188.075058,457.067535 
	C189.165375,454.778473 187.953583,452.827637 186.823486,451.014679 
	C186.137039,449.913452 184.888489,449.178894 184.083969,448.132385 
	C178.112137,440.364166 179.331589,440.506592 187.299667,435.903687 
	C188.384537,435.277008 189.717331,435.187378 190.585678,436.092407 
	C195.514450,441.229553 199.697891,437.907562 204.324646,435.381989 
	C207.142044,433.844055 210.569077,433.580719 213.026215,431.016327 
	C214.033295,429.965271 214.596573,428.974121 214.921188,427.326080 
	C215.001114,426.995392 214.971252,427.027191 214.971252,427.027191 
	C218.548981,421.728638 221.665619,416.219086 218.517990,409.686646 
	C217.184814,406.919830 219.203232,406.952972 221.121689,406.110870 
	C217.230392,400.927795 211.973923,397.648346 207.465759,393.631134 
	C198.768524,385.880951 189.911514,378.304352 180.965210,370.842255 
	C177.535034,367.981201 176.698090,365.278717 179.909485,361.838287 
	C180.353897,361.362213 180.580154,360.689545 180.954865,360.140259 
	C186.216599,352.426910 186.194901,352.487152 194.903580,355.993713 
	C199.682556,357.917969 204.557281,359.604309 210.181473,361.692200 
	C207.543381,354.947540 203.875702,349.509460 200.599548,343.928894 
	C198.460953,340.286011 197.631943,337.359009 201.356033,334.460693 
	C201.609558,334.263428 201.784164,333.951202 201.960754,333.670624 
	C206.158203,327.001282 208.303711,326.682343 214.726242,331.616272 
	C222.337372,337.463348 229.993271,343.252167 238.183426,348.504486 
	C232.179413,340.651276 226.454773,332.560608 220.060654,325.039032 
	C216.545303,320.903778 216.536331,317.542480 219.855545,313.328369 
	C219.988678,313.014252 219.965942,313.036224 219.965942,313.036224 
	C222.543274,310.002777 225.130234,306.977448 227.695892,303.934143 
	C232.936295,297.718201 241.602707,292.224823 251.431152,297.905579 
	C260.916290,303.387970 266.786713,314.904388 263.657318,323.909363 
	C261.855408,329.094482 259.627228,334.192200 255.636795,338.152283 
	C253.036194,340.733154 253.382309,342.981628 255.597015,345.497345 
	C257.238953,347.362427 258.543732,349.543579 260.289520,351.293884 
	C263.536560,354.549347 263.302521,357.065216 259.486023,359.725616 
	C254.517548,363.189056 250.999329,368.145477 247.142120,372.717712 
	C244.950119,375.316040 242.934174,375.441101 240.433578,373.120209 
	C237.150558,370.073151 233.687195,367.220428 229.449997,363.545776 
	C231.152786,367.050232 232.376953,369.628143 233.652527,372.180359 
	C235.306564,375.489807 236.245361,378.951813 233.532242,381.996460 
	C230.773270,385.092560 227.363998,383.383240 224.214508,382.418396 
	C222.670425,381.945343 221.189743,381.265381 218.398849,380.181274 
	C222.646927,383.837006 225.849548,386.617249 229.080322,389.364349 
	C231.022079,391.015381 231.490860,392.693176 229.870224,394.963043 
	C227.565826,398.190704 225.509567,401.595490 223.339783,404.936188 
	C223.920776,405.946014 225.126678,405.734467 225.392258,405.228943 
	C227.825455,400.597595 232.751709,397.124756 232.553482,391.317291 
	C232.462128,388.640900 232.859558,386.533966 234.814529,384.736389 
	C236.975800,382.749084 238.187943,380.320435 237.916672,377.341766 
	C241.111084,375.620178 245.293930,378.375916 247.555893,375.643219 
	C252.157257,370.084320 258.143066,365.905731 262.525665,360.268036 
	C265.205017,356.821381 264.427185,352.307617 261.965820,349.029510 
	C256.377594,341.586945 255.376114,341.066071 261.140808,334.044800 
	C265.439301,328.809326 265.624023,323.555267 265.784058,317.732788 
	C265.827332,316.158325 265.320892,314.454407 266.769958,312.579865 
	C268.624268,315.227753 270.685791,316.839020 271.736664,320.170593 
	C273.549103,325.916656 276.881104,331.277527 280.149811,336.436096 
	C282.229584,339.718353 287.993317,339.824097 291.846924,337.100494 
	C295.375214,334.606750 299.008209,332.925476 304.156586,334.052460 
	C303.768768,339.957672 301.881378,345.270386 296.718353,348.698639 
	C292.879211,351.247864 290.419464,354.468750 288.945740,358.715912 
	C287.507599,362.860443 284.842102,366.340912 282.314087,369.845276 
	C279.577301,373.638916 275.419434,374.717590 271.168213,373.848236 
	C266.693634,372.933167 263.847412,374.683258 262.243195,378.321259 
	C258.636169,386.501099 254.214783,394.618439 257.452850,404.124329 
	C258.112671,406.061279 258.148499,408.157318 257.357330,410.026978 
	C255.061066,415.453339 255.070038,420.944031 256.021606,426.665314 
	C257.697632,436.742188 253.488586,446.396362 253.543747,456.408356 
	C253.583771,463.675751 250.550369,470.240326 248.413483,477.081818 
	C244.535049,489.499237 244.939667,502.663086 244.426315,515.546570 
	C244.214386,520.865845 247.644470,525.558289 251.717361,529.347229 
	C256.952942,534.217773 262.241364,538.992249 265.574432,545.596069 
	C267.234192,548.884644 270.349884,551.109070 274.064514,552.178162 
	C289.866272,556.726196 300.861450,567.259277 310.591492,580.048706 
	C317.309052,588.878479 325.405426,596.686157 331.559692,606.010559 
	C340.501068,619.557800 353.374268,628.734375 366.468018,637.645447 
	C371.520874,641.084167 374.032532,646.440613 377.486481,651.079956 
	C383.175201,658.721191 387.704895,666.964600 391.318909,675.865112 
	C396.525604,688.688049 404.567139,699.281128 418.162659,704.464111 
	C421.686279,705.807434 425.055054,706.176575 428.856689,705.144470 
	C437.820221,702.710754 445.824829,697.751221 454.869812,695.593018 
	C455.618652,695.414368 456.526337,694.865723 456.880646,694.224121 
	C462.799713,683.505127 474.522217,680.176941 483.450684,673.309143 
	C493.839996,665.317688 505.370850,659.614380 517.988098,655.869141 
	C524.299988,653.995544 530.313721,649.764343 533.743408,644.843872 
	C538.331116,638.262085 541.665039,630.961609 548.873352,626.627502 
	C552.861450,613.385742 559.896606,601.431213 564.910278,588.666260 
	C567.583557,581.859924 567.522217,574.019836 570.558533,567.034668 
	C571.821533,564.129028 573.267883,561.700500 575.955261,560.148926 
	C582.511597,556.363342 585.655518,550.333557 587.265381,543.268738 
	C587.672363,541.482727 587.691467,539.571289 588.323364,537.879822 
	C591.945068,528.185303 590.799377,519.007568 586.071716,509.936768 
	C584.039551,506.037506 584.476135,501.419647 584.204834,497.166351 
	C583.382935,484.283783 578.887146,472.896454 571.641174,462.399994 
	C565.489746,453.489075 559.174133,444.675171 553.414734,435.514313 
	C547.114502,425.493103 536.879089,420.840759 527.340698,415.149017 
	C517.643127,409.362335 507.204437,404.537415 500.458252,394.872681 
	C497.698486,390.918945 494.970978,386.919647 492.560486,382.749329 
	C484.200623,368.286560 471.834778,357.193085 460.931641,344.874664 
	C456.865143,340.280304 451.951569,336.460602 448.435608,331.345520 
	C447.032379,329.304077 444.856720,328.455200 442.631897,327.666840 
	C439.180023,326.443726 435.714111,325.247681 432.320892,323.875031 
	C428.485962,322.323730 426.643921,319.617767 425.824951,315.275940 
	C424.783356,309.754028 423.551788,303.726501 417.750580,300.696747 
	C415.140320,299.333435 417.489288,296.513458 415.466003,294.819611 
	C413.450562,295.904053 413.689880,301.466309 408.975189,298.016785 
	C412.290009,296.910919 411.655823,293.237061 413.390503,291.602051 
	C415.087372,290.002716 418.254089,289.962799 420.605957,289.287079 
	C421.094727,289.813904 421.490143,290.038025 421.506073,290.286469 
	C422.126648,299.969849 422.122131,299.972534 432.031311,299.982666 
	C433.697876,299.984344 435.364410,299.956848 437.030975,299.940399 
	C444.446655,299.867188 447.665161,294.957184 444.231171,288.085632 
	C443.004639,285.631287 442.963379,283.409210 442.808594,280.962769 
	C442.522247,276.437256 443.904480,271.656281 440.327728,267.613800 
	C439.524048,266.705444 439.735046,264.718262 439.808807,263.244232 
	C440.255920,254.308044 438.097443,245.928223 434.750671,237.739746 
	C434.010864,235.929703 433.093018,234.010956 431.376373,233.681671 
	C425.630859,232.579559 419.699829,232.561844 414.012787,233.590637 
	C411.398346,234.063583 410.208954,237.962448 409.696503,240.336243 
	C408.517242,245.798782 403.431976,249.124222 402.707214,254.754974 
	C402.529541,256.135010 401.460632,257.671783 400.998230,259.279449 
	C399.788147,263.486664 399.060120,268.002136 395.065765,270.828400 
	C393.759979,271.752380 393.300201,273.050903 393.414764,274.743866 
	C393.800720,280.448547 392.302551,285.587311 387.977020,289.520172 
	C387.389038,290.054718 387.105835,290.439728 387.246613,290.960205 
	C388.708130,296.363098 384.662811,298.561066 381.548187,301.213928 
	C379.049042,285.866821 380.397034,270.133148 376.308807,254.812256 
	C379.875519,254.228348 383.410004,250.960266 387.064240,254.640793 
	C380.613068,261.963135 381.836029,271.152863 380.124268,279.492035 
	C379.648560,281.809509 381.430359,283.098114 383.599243,283.639282 
	C386.146515,284.274811 387.956848,283.136505 388.806641,280.897858 
	C390.042908,277.641174 390.953278,274.259155 391.964966,270.919220 
	C393.971466,264.294983 395.891113,257.643585 397.979462,251.045425 
	C398.636017,248.970963 399.186035,246.810059 396.851135,245.869781 
	C394.396484,244.881302 394.063171,247.507050 393.195007,248.974442 
	C392.696777,249.816605 392.523224,250.889587 391.107574,251.348923 
	C388.367645,249.567810 389.006470,246.556168 388.822815,243.898239 
	C388.673798,241.741791 388.804199,239.567352 388.760620,237.401901 
	C388.729004,235.832397 388.303375,233.814087 386.774567,233.735947 
	C381.645142,233.473755 376.294922,231.438950 371.449066,234.949326 
	C370.922302,235.330887 370.335510,236.055099 369.846741,235.999832 
	C362.144928,235.129059 355.035156,238.579834 347.579559,239.022156 
	C340.604553,239.436005 340.357452,239.227188 340.192810,246.311081 
	C340.151917,248.070480 340.774658,249.979568 338.386169,252.766357 
	C338.766815,245.250458 334.664154,242.309937 328.804535,240.696472 
	C326.935547,244.057404 324.523926,246.564056 320.058105,246.457520 
	C317.602142,246.398926 315.574127,248.654861 313.372589,249.708084 
	C308.107178,252.227081 302.646576,254.038986 297.193176,255.896835 
	C294.826630,256.703064 293.963898,257.965118 294.025879,260.214203 
	C294.210815,266.928345 295.955292,273.079346 298.437378,279.436462 
	C299.971313,283.365204 302.333374,287.651428 302.314362,292.312897 
	C302.307678,293.950531 302.583740,295.429596 303.317749,297.050507 
	C304.694305,300.090393 304.368103,302.387024 300.073639,303.510803 
	C296.653290,304.405823 293.710724,307.126770 290.227936,309.235870 
	C285.444458,305.301758 283.422333,299.471985 281.046783,294.363617 
	C277.665314,287.092224 273.800354,280.140717 269.867676,273.200989 
	C269.375214,272.332062 268.022858,271.777039 266.954468,271.446198 
	C265.083008,270.866730 254.833679,276.124023 253.917557,278.564484 
	C252.819168,281.490417 252.462067,284.752594 254.923553,287.444824 
	C258.131592,290.953583 257.803528,296.176300 262.153961,300.323303 
	C254.854034,300.587524 252.748032,293.240265 246.767700,293.158508 
	C241.267639,293.083313 235.867508,294.389465 229.788681,294.499786 
	C231.472946,290.246765 233.938492,287.974548 237.290985,286.711548 
	C240.688019,285.431763 243.288864,283.315155 245.485718,280.437500 
	C248.653412,276.288177 252.368042,272.743958 257.599213,271.220428 
	C259.554047,270.651123 261.204468,269.541016 262.530548,267.953827 
	C263.951233,266.253387 265.899109,265.631317 267.941589,266.168579 
	C272.024750,267.242615 276.164673,265.390656 280.496918,267.500092 
	C283.566376,268.994629 287.746338,266.463898 288.811401,262.798981 
	C291.255920,254.387161 298.376282,251.914398 305.081238,248.697586 
	C309.402710,246.624298 313.848175,244.724655 317.896973,242.200134 
	C320.257629,240.728226 322.684204,239.408936 325.248932,239.454636 
	C336.163483,239.649124 344.993164,233.964752 354.340759,229.688599 
	C354.934723,229.416870 355.713104,228.996979 356.222595,229.173737 
	C365.334595,232.335114 373.574890,227.455444 381.909302,225.671783 
	C389.006104,224.153030 395.941376,222.138153 403.256317,221.897934 
	C405.262939,221.832062 407.376953,221.541870 409.139557,222.600204 
	C417.157318,227.414429 425.808838,226.459183 434.383545,225.283630 
	C438.150024,224.767273 440.688660,227.164536 443.746979,228.185822 
	C452.332001,231.052673 461.525757,233.402344 463.745819,244.412354 
	C464.313080,247.225632 466.595062,249.188705 469.070984,250.789230 
	C472.566742,253.049042 475.970062,255.455521 479.361420,257.871613 
	C481.039551,259.067200 482.857513,260.170807 484.877686,259.884552 
	C490.875946,259.034576 494.720520,262.207336 498.794403,266.005798 
	C502.516357,269.476074 507.168427,271.950928 511.423096,274.846039 
	C512.411682,275.518707 513.664246,276.174286 514.710876,275.646393 
	C522.889771,271.521515 532.483704,270.232910 537.003906,259.811951 
	C540.065918,252.752930 543.980957,246.072693 546.348389,238.591019 
	C547.860413,233.812790 552.142273,231.368896 557.216187,231.054947 
	C559.685913,230.902145 562.287964,230.870865 564.658325,231.467239 
	C577.082886,234.593124 589.262695,238.281555 600.362854,245.078308 
	C615.148560,254.131714 631.633972,259.990082 646.421448,269.095123 
	C650.689880,271.723358 654.799744,274.495544 658.542664,277.868256 
	C660.998718,280.081299 663.612061,282.569458 666.616577,283.646179 
	C679.338867,288.205322 687.386658,298.008728 694.489380,308.507660 
	C705.209290,324.353394 714.802124,340.948853 725.703674,356.691681 
	C726.363464,357.644531 727.020508,358.678101 727.344360,359.773041 
	C732.032776,375.624817 739.173950,390.478241 746.345337,405.264496 
	C753.151123,419.296875 754.211548,434.726624 758.308716,449.402313 
	C759.082703,452.174500 759.307251,455.060883 758.429321,457.803009 
	C757.134155,461.848175 756.953064,465.961243 756.910828,470.142426 
	C756.845764,476.583588 752.788086,482.089691 746.476318,482.822968 
	C735.775818,484.066162 730.025940,490.232513 728.044922,500.163177 
	C725.190979,514.469849 720.580872,528.350952 719.620667,543.155579 
	C719.016479,552.472229 715.858948,561.719116 712.548279,570.634033 
	C707.058838,585.415710 701.461243,600.157288 695.888611,614.907898 
	C691.882324,625.512451 690.101074,636.787842 685.853394,647.352539 
	C683.915588,652.172180 684.813599,657.605042 685.711853,662.691467 
	C687.172241,670.961609 686.322021,678.863953 683.406128,686.729065 
	C681.910339,690.763489 681.215515,695.096558 680.183960,699.300842 
	C678.865540,704.674255 677.455261,710.206909 674.021851,714.498474 
	C667.284363,722.920105 668.196594,732.238647 669.989807,741.634888 
	C671.736328,750.786072 674.377747,759.733276 674.135559,769.222839 
	C673.673035,787.344604 660.200623,800.970215 642.132141,801.075195 
	C632.835815,801.129211 623.620728,798.962341 614.234131,800.593872 
	C598.296509,803.364197 582.463989,806.536072 567.164856,811.860168 
	C561.655457,813.777405 556.507019,813.852905 551.166016,811.506348 
	C546.766846,809.573547 543.496826,807.461060 542.081970,802.020264 
	C540.412781,795.601807 536.948242,789.679321 528.828186,788.870300 
	C525.410339,788.529724 522.573364,786.618835 521.164795,783.173340 
	C519.886475,780.046753 518.136169,777.303467 514.672852,775.937622 
	C516.838135,771.080750 521.386108,769.856506 525.198608,768.064697 
	C529.790955,765.906250 530.983765,763.473389 530.237183,758.696228 
	C529.518616,754.097961 528.650940,749.568420 526.219910,744.164795 
	C531.854065,746.558838 534.570007,750.334717 538.284363,752.760376 
	C547.532898,758.799988 563.707642,753.310486 567.760986,743.043335 
	C569.542847,738.529663 571.020447,734.293335 570.671448,729.461792 
	C570.551575,727.802490 570.670044,726.122559 569.169189,724.490356 
	C567.453735,727.755920 568.491028,731.127319 568.148193,734.305725 
	C567.348145,741.723389 564.459839,747.847778 557.401062,751.129333 
	C549.924377,754.605164 542.844055,753.828430 536.448730,748.372192 
	C532.225159,744.768921 528.700867,740.593506 526.109741,735.678894 
	C521.093445,726.164490 516.597168,716.518494 518.762207,705.247070 
	C518.927429,704.387085 519.259644,703.259277 518.165100,702.504883 
	C515.861633,703.408875 516.819824,706.034729 515.589294,707.509216 
	C511.353912,702.162354 510.427734,702.036011 503.623749,705.781189 
	C503.196869,706.016113 502.695587,706.128906 502.217560,706.255676 
	C500.280151,706.769470 497.073669,705.261719 496.679230,708.146790 
	C496.211304,711.569580 494.649475,715.846497 498.084320,718.420898 
	C500.031616,719.880371 497.661346,722.909363 500.826111,723.131958 
	C500.997925,722.987000 500.977661,722.952942 500.977661,722.952942 
M591.433777,702.600525 
	C592.903259,701.269287 592.361023,699.958679 591.376221,698.671509 
	C586.571228,692.391418 581.019836,686.679871 577.129150,679.692505 
	C576.588867,678.722229 575.362549,677.676697 573.668884,678.000671 
	C571.013428,681.164612 570.775391,684.783447 571.887878,688.657898 
	C573.177063,693.147278 575.098999,697.319275 578.399048,701.541565 
	C579.901917,702.757812 581.337891,704.070374 582.921448,705.170471 
	C586.392639,707.581848 589.260132,707.321960 591.433777,702.600525 
M539.868103,725.275452 
	C539.204651,721.370117 538.100952,717.636658 535.634338,714.432251 
	C536.770996,718.410461 536.670654,722.855652 540.210815,726.662964 
	C542.315308,730.038757 544.333618,733.472839 546.562622,736.764343 
	C547.591553,738.283630 549.096985,739.687073 551.166992,738.769775 
	C552.999268,737.957764 552.977356,736.008850 552.800232,734.395813 
	C551.672546,724.127991 546.648804,715.594727 540.537781,707.599365 
	C539.425476,706.144043 537.654297,705.887329 535.982605,706.521545 
	C534.366943,707.134460 533.853821,708.448425 534.410461,710.117004 
	C542.272888,708.643372 543.156006,716.099243 546.022339,720.028625 
	C548.932922,724.018677 552.352966,729.089722 549.657715,735.052734 
	C544.837524,733.394470 544.283081,727.742004 539.868103,725.275452 
M663.325745,633.398438 
	C663.806152,633.697266 663.815613,635.025513 664.885071,633.530151 
	C668.108948,629.022278 667.040588,623.525452 668.692932,618.744507 
	C655.933716,612.656738 643.113831,606.637573 629.632141,602.169312 
	C639.088135,608.054260 648.696960,613.622620 658.240906,619.299927 
	C666.559387,624.248169 666.527100,624.302490 662.444092,633.363464 
	C660.457275,637.729980 657.664001,637.968018 653.742126,635.562622 
	C649.313904,632.846680 644.579529,630.629761 639.978333,628.195862 
	C643.915100,631.442566 648.409302,634.006836 652.262390,636.866211 
	C655.191223,639.039734 657.319641,639.972168 660.275208,639.273132 
	C663.499207,638.510498 662.708008,635.397522 663.325745,633.398438 
M601.007690,685.010376 
	C601.007690,685.010376 600.975647,684.987305 601.276367,685.591309 
	C603.251648,688.023315 605.226929,690.455322 607.632629,693.417236 
	C609.286926,689.330811 612.886719,691.312805 615.747620,690.201904 
	C605.677185,684.033447 603.590515,682.217285 604.849182,680.036804 
	C606.580322,677.037720 608.711731,674.134888 611.200073,671.739807 
	C614.794373,668.280151 617.531982,674.465942 621.128662,673.254333 
	C621.246582,667.744995 618.005798,665.392700 612.332764,667.280029 
	C604.110596,670.015442 596.085144,673.964478 587.197327,668.923767 
	C592.025330,674.420898 595.696899,680.457336 601.007690,685.010376 
M604.711975,398.788147 
	C618.735474,393.076996 632.764648,387.379700 646.780457,381.649841 
	C656.085632,377.845764 655.979614,377.866272 659.941162,387.186401 
	C661.686584,391.292877 660.738464,393.829651 656.561768,395.347473 
	C653.131042,396.594177 649.729980,397.936310 646.374451,399.373108 
	C638.042603,402.940704 629.378784,405.774261 620.974976,410.270874 
	C624.066711,416.800751 626.955566,422.902191 629.779541,428.866608 
	C631.855835,429.076843 633.327148,428.200317 634.919861,427.791077 
	C645.636047,425.037567 656.431458,423.030579 667.368896,426.533020 
	C675.269897,429.063110 680.500122,434.049194 681.714783,442.675903 
	C682.870117,450.881439 679.585815,456.816345 672.940979,461.341187 
	C666.033508,466.044861 658.127625,467.811768 649.578613,469.360931 
	C652.841858,470.287750 656.729004,468.393250 658.140503,470.434052 
	C660.090515,473.253448 662.164734,472.757782 664.527222,472.701416 
	C680.044617,472.331207 687.843933,480.088654 688.349976,495.616821 
	C688.734924,507.429565 679.013428,511.138367 669.858459,510.601318 
	C668.695557,510.533081 667.402771,510.161835 667.063782,508.856842 
	C666.097046,505.135040 665.606201,501.178009 666.614685,497.576630 
	C667.334900,495.004486 670.704529,495.203827 673.141052,494.767426 
	C674.163513,494.584320 675.104614,494.284515 675.217896,493.014618 
	C671.279724,488.561646 666.384216,489.497589 663.330688,495.672577 
	C661.168945,500.044220 658.802185,504.217102 655.392151,507.684998 
	C647.046265,516.172302 631.139404,512.900879 626.607605,501.930939 
	C624.100037,495.860901 624.615479,489.568115 624.817200,483.077606 
	C619.548279,493.465363 624.234253,508.068939 635.864929,514.155334 
	C643.094299,517.938477 654.027344,512.895813 664.270020,500.046326 
	C664.585754,500.735474 664.902771,501.276398 665.089050,501.859070 
	C666.071716,504.932404 663.587524,509.179810 666.853210,511.123657 
	C669.775269,512.862915 673.704712,511.525909 677.184753,511.685303 
	C678.015869,511.723389 678.859619,511.602722 679.682068,511.694336 
	C683.189026,512.084778 685.972290,509.919708 686.999939,507.447449 
	C688.712830,503.326569 691.708679,499.471344 690.763550,494.378235 
	C689.029175,485.031067 687.514526,476.206909 676.175537,472.793488 
	C672.959229,471.825226 669.306030,469.489105 665.479797,467.625916 
	C672.919250,468.251709 676.479858,462.104401 679.487305,458.298370 
	C684.142822,452.406494 684.154175,443.995605 681.585815,436.518005 
	C678.049744,426.222809 668.226501,424.386230 659.565491,422.679138 
	C653.737671,421.530426 647.275696,421.121124 640.948303,424.851501 
	C635.014038,428.350067 629.036682,424.350067 626.627380,417.271118 
	C624.659119,411.488098 625.373230,410.628326 630.966125,408.533295 
	C633.914856,407.428650 636.970459,406.262878 639.717407,404.853577 
	C644.198059,402.554901 648.731323,400.736786 653.582275,399.577545 
	C660.703064,397.876007 663.760681,394.101837 662.561646,388.192841 
	C661.973877,385.296661 659.715881,383.171814 658.576538,380.437836 
	C657.072021,376.827423 651.562012,375.905457 648.501587,378.464142 
	C645.189331,381.233276 640.426453,380.219025 637.167053,383.137115 
	C636.620728,383.626160 634.816833,383.444336 634.485352,381.822510 
	C646.152222,372.480652 648.203857,366.358002 640.221436,352.707672 
	C639.914673,354.961121 640.958130,356.408386 641.768738,357.964325 
	C644.317444,362.856598 644.258972,368.001160 640.784790,372.079529 
	C634.461548,379.502533 626.901245,385.103424 616.235596,382.329956 
	C613.503479,381.619537 612.289856,382.443634 611.195496,384.733795 
	C608.898254,389.541138 606.427856,394.265686 603.233521,399.096375 
	C599.235229,399.083130 596.143616,396.412354 592.468994,395.417480 
	C589.456055,394.601746 589.139587,392.721832 590.529846,390.055634 
	C593.066895,385.190216 595.384705,380.210938 597.840576,375.302429 
	C598.683228,373.618195 598.734192,372.193420 597.190613,370.841553 
	C595.535706,369.392303 594.154175,370.141998 592.706543,371.135559 
	C589.690063,373.205780 586.689575,375.302216 583.619446,377.290527 
	C581.557068,378.626190 579.618225,378.781891 578.094177,376.329498 
	C574.692810,370.856354 569.498840,367.067444 564.786377,362.927795 
	C561.299805,359.864990 561.047974,357.670471 564.181580,354.416046 
	C565.651062,352.889984 568.623291,350.527100 566.517151,348.662415 
	C563.610107,346.088654 560.048645,341.352203 556.103577,343.332642 
	C550.849060,345.970428 546.617188,348.238708 541.745605,342.786316 
	C547.519775,349.116791 550.467163,350.158081 554.001953,346.766876 
	C556.368774,344.496155 557.799011,344.319611 560.187866,346.462189 
	C562.725403,348.738159 564.038330,350.655182 561.705505,354.021332 
	C558.821960,358.182281 559.919189,362.322418 563.660461,365.505981 
	C568.304810,369.457947 573.498169,372.834442 576.480713,378.556366 
	C578.036804,381.541565 583.071716,381.535614 585.605347,379.062958 
	C588.362671,376.372040 591.473083,374.514740 595.788513,375.061127 
	C591.983887,378.481812 592.527222,383.805756 589.155212,387.567474 
	C587.080383,389.881958 586.783630,394.843506 590.851318,397.173737 
	C594.824463,399.449829 596.521484,402.241486 596.713379,406.981293 
	C596.813354,409.451843 598.284912,412.418671 600.154968,414.920746 
	C603.724426,419.696625 605.785767,425.446991 608.814026,430.625458 
	C610.679443,433.815247 611.580017,437.327179 615.170837,438.854980 
	C612.894348,449.349091 614.906006,458.508911 622.735535,465.538849 
	C625.293213,467.835358 627.880798,469.463226 627.321045,474.034058 
	C633.123718,468.875336 636.569641,475.071838 641.616943,475.817261 
	C640.562866,470.726288 645.836426,474.057434 646.927124,471.440247 
	C646.810730,469.146271 645.155701,469.441223 643.661377,469.424042 
	C641.339661,469.397400 639.009399,469.452576 636.698425,469.272003 
	C618.690674,467.865021 609.902283,447.262573 621.318298,435.837738 
	C621.670471,435.485321 621.901794,435.008514 621.269531,434.633057 
	C614.462769,437.147247 614.014465,436.868317 610.731812,430.373138 
	C607.432434,423.844818 603.846313,417.462067 600.470459,410.971619 
	C596.426758,403.197235 596.465515,403.177094 604.711975,398.788147 
M601.835999,348.293365 
	C608.037170,344.154694 614.848022,340.902893 620.949280,335.760529 
	C618.208923,335.102753 616.481934,335.566040 614.695435,336.821960 
	C609.360596,340.572235 603.933167,344.196838 598.441467,347.713745 
	C597.008545,348.631348 595.274719,348.655884 593.547607,346.173309 
	C597.806458,342.592896 598.565674,336.797302 601.520874,332.225098 
	C604.683105,327.332581 607.090881,322.575897 606.779358,316.498779 
	C606.409790,309.289459 601.217285,303.861176 593.935425,303.263123 
	C585.657104,302.583282 579.103333,307.457428 572.718079,310.920074 
	C566.312256,314.393921 559.114990,316.814758 553.441162,321.741089 
	C552.390625,322.653229 550.738098,322.419434 550.085205,320.880890 
	C549.194946,318.783020 548.331055,316.619720 547.897705,314.398285 
	C547.505737,312.388733 547.510559,310.116486 545.168884,309.594269 
	C542.597534,309.020813 539.887512,308.825256 537.689636,311.037140 
	C535.478638,313.262146 528.814941,314.278076 527.494019,312.438751 
	C525.332520,309.429047 527.335999,307.314880 529.527344,305.335205 
	C529.967407,304.937683 529.920044,304.046112 530.294006,303.522858 
	C533.545410,298.973969 536.987305,294.597778 541.603882,291.044189 
	C542.891724,292.879089 542.475586,294.460938 542.241638,295.820740 
	C541.392395,300.756165 543.490417,303.613434 547.824219,305.852051 
	C555.797485,309.970551 557.711792,310.399902 561.449890,306.251160 
	C564.436829,302.936066 566.689880,298.656952 567.417236,294.516357 
	C570.430481,277.363129 559.036316,270.741882 545.827942,268.312073 
	C539.865784,267.215240 535.281860,271.072479 530.103333,272.675781 
	C527.254944,273.557678 524.257812,274.742035 521.934387,277.103577 
	C515.923279,283.213318 510.450775,289.579468 507.662201,297.939941 
	C505.369629,304.813477 504.505585,312.597473 507.128204,318.452454 
	C511.088074,327.292908 519.624878,332.378937 529.963562,331.968536 
	C533.270264,331.837250 535.377502,331.940582 535.723206,335.627411 
	C537.537354,334.152313 538.945618,332.696808 540.623657,331.691437 
	C555.474609,322.793671 570.752747,314.741089 586.462341,307.413788 
	C592.332214,304.675934 596.281433,305.718048 600.668518,309.478333 
	C605.144897,313.315216 606.239807,316.801666 604.161804,322.264923 
	C602.195435,327.435089 599.261902,332.088867 596.342468,336.736053 
	C591.552002,344.361816 586.651062,351.918213 581.796692,359.503845 
	C582.014282,359.678223 582.231873,359.852570 582.449524,360.026917 
	C588.700806,356.236816 594.952148,352.446716 601.835999,348.293365 
M581.869080,643.548462 
	C584.935974,637.021423 591.040710,633.684814 596.892456,629.516785 
	C595.215454,627.460205 596.153259,625.596375 597.077393,623.546387 
	C601.382996,613.994873 605.533386,604.373535 609.757202,594.784973 
	C610.550110,592.984924 610.875183,591.194641 610.244629,588.685486 
	C608.087097,593.794495 605.969727,598.190063 604.361572,602.764526 
	C602.077637,609.261536 597.900269,614.818542 595.694092,621.443909 
	C594.811951,624.092957 594.630188,628.221924 591.537354,629.719666 
	C588.962341,630.966736 587.611511,633.150391 585.655823,634.854004 
	C579.034851,640.621765 578.871521,651.608276 569.318481,654.956604 
	C569.052917,655.049683 568.820801,655.425354 568.702087,655.721069 
	C567.474731,658.777954 564.858398,660.624512 562.186890,661.903748 
	C557.566711,664.116211 556.230286,668.468872 555.522644,672.513245 
	C554.481934,678.461182 552.132568,684.249512 553.362183,691.356689 
	C546.607178,688.804504 540.790344,686.340942 534.203003,687.170898 
	C526.778442,688.106262 523.631592,693.645630 519.071289,700.063782 
	C520.816162,698.931580 521.452759,698.711060 521.799927,698.265259 
	C531.703918,685.548279 547.723389,688.319580 555.609863,699.840027 
	C560.372742,706.797546 565.027466,713.885681 567.165588,722.594543 
	C567.680908,718.339111 571.248108,718.682434 572.324890,720.216064 
	C573.860229,722.402710 576.177246,722.443848 577.851990,723.903015 
	C580.752686,726.430298 591.123169,726.333008 594.460815,724.355591 
	C601.721436,720.054138 607.372437,714.198914 612.041687,707.220093 
	C614.159729,704.054443 613.935364,701.207581 612.477722,698.159302 
	C613.218506,703.358826 609.161255,706.426270 606.890198,710.034607 
	C599.705261,721.449890 589.746094,725.765686 579.632690,722.213745 
	C573.419312,720.031372 569.009888,715.362488 565.140198,710.334412 
	C554.495239,696.503113 549.268188,675.436646 567.432556,660.454285 
	C573.542053,655.415100 574.760559,655.200989 580.703674,661.069763 
	C577.932983,654.806519 578.379517,649.392761 581.869080,643.548462 
M451.257965,297.753387 
	C451.654724,299.143646 451.658325,300.779572 453.562775,301.344330 
	C453.917664,301.101715 454.506470,300.921814 454.677063,300.549988 
	C458.834656,291.489044 465.022522,284.619812 474.696808,281.198883 
	C476.887909,280.424072 477.257599,278.226013 476.260559,276.133606 
	C474.518982,272.478668 472.139435,269.835876 467.513489,270.080933 
	C463.378021,270.300079 459.218292,270.058777 455.069244,270.025177 
	C449.969940,269.983887 444.292664,279.261414 447.309357,283.411163 
	C450.367004,287.617218 451.352722,292.010803 451.257965,297.753387 
M677.686157,576.581665 
	C680.875977,576.889038 682.006714,578.685852 681.440430,581.737671 
	C681.015442,584.028076 680.496216,586.309875 680.235352,588.619934 
	C679.700073,593.359985 677.169983,594.160522 672.943970,592.969238 
	C661.897034,589.855164 650.796143,586.929871 639.692871,584.020325 
	C636.841125,583.273071 633.901245,582.862549 631.001831,582.297302 
	C643.957703,588.841553 656.968445,594.776306 670.121582,600.376892 
	C674.204956,602.115540 674.874634,604.262390 673.118469,608.087891 
	C672.016235,610.488708 670.881042,613.076416 671.628235,615.951721 
	C672.167664,611.810059 675.797668,609.114746 675.909424,604.455078 
	C676.044434,598.821472 669.915771,599.310730 668.310486,595.536560 
	C672.603577,593.196228 677.923279,598.088562 681.077515,591.865662 
	C683.501465,587.083618 682.539124,582.480713 682.463379,577.843018 
	C682.408691,574.494019 672.946777,571.777039 667.514587,573.217957 
	C670.340576,575.304443 673.765381,575.448792 677.686157,576.581665 
M466.578766,306.481476 
	C469.209991,310.634796 473.591400,310.661682 477.081726,309.286743 
	C480.883057,307.789246 485.100311,305.294952 483.705414,299.583435 
	C483.437531,298.486572 483.675568,297.269958 483.651611,296.109161 
	C483.546967,291.043091 480.937531,288.187866 476.077576,287.335327 
	C470.482788,286.353943 466.821106,288.680969 464.552673,293.600861 
	C462.504272,298.043457 462.200470,302.327209 466.578766,306.481476 
M657.431030,441.012726 
	C650.424500,441.211548 643.629822,442.705231 636.999146,444.796967 
	C634.786987,445.494812 631.907532,446.607300 632.446899,449.856171 
	C633.007751,453.234894 636.048523,453.431213 638.657837,453.579193 
	C645.876831,453.988678 652.907288,452.489166 659.659363,450.252686 
	C662.789612,449.215881 668.394958,448.813263 667.747437,444.554321 
	C667.152344,440.640381 661.903687,441.322876 657.431030,441.012726 
M606.223755,635.288147 
	C607.766479,638.320251 606.849976,640.237061 603.724609,641.522644 
	C601.435791,642.464172 599.268921,643.742249 597.141968,645.026306 
	C594.797424,646.441650 593.285095,648.507324 594.591492,651.277466 
	C595.898926,654.049866 598.576233,653.941589 601.122253,653.455078 
	C602.250793,653.239380 603.329712,652.714417 604.401672,652.260132 
	C611.850769,649.103088 619.344543,646.560242 628.033936,651.119202 
	C622.750732,645.137207 617.496826,643.280945 612.029846,646.773071 
	C608.236450,649.196228 603.248169,648.295898 600.191956,652.033386 
	C599.669800,652.671814 598.299011,652.460632 597.158936,651.569214 
	C597.522766,648.757568 598.363220,646.603821 601.794067,645.631531 
	C606.387207,644.330017 609.426880,641.098450 610.789734,636.025940 
	C609.157776,635.597656 607.768372,635.233093 606.223755,635.288147 
M629.290283,553.794189 
	C633.961670,557.717041 639.585022,558.193359 645.390320,558.163513 
	C642.299927,554.477295 637.692932,554.212524 633.565247,553.357056 
	C622.086975,550.977966 622.050476,551.153137 624.753357,540.070251 
	C624.989746,539.101013 625.277771,538.141846 625.463013,537.163086 
	C626.022888,534.205505 627.870422,533.344421 630.583374,534.077759 
	C633.789246,534.944397 636.981506,535.870300 640.146484,536.875000 
	C642.024719,537.471252 643.047546,537.188965 642.760132,534.666443 
	C638.481689,534.606689 634.522888,533.818115 630.679443,531.433044 
	C626.503540,528.841675 624.477722,530.347351 624.291443,535.364258 
	C624.214111,537.446777 623.363770,539.137085 622.599731,540.987915 
	C619.395691,548.749390 621.010864,551.832092 629.290283,553.794189 
M630.653931,561.134216 
	C627.851624,558.532532 624.371704,559.033569 621.183472,559.569458 
	C618.205505,560.070068 619.820496,563.216431 618.990845,565.032959 
	C618.854431,565.331604 618.679749,565.614624 618.504700,565.893616 
	C615.378479,570.875427 615.779907,577.370239 611.572388,581.954102 
	C610.981995,582.597168 610.765442,584.434326 611.964478,585.475220 
	C615.856873,579.700806 618.937012,573.665527 619.571594,566.652039 
	C619.586487,566.488159 619.649231,566.329041 619.680542,566.166016 
	C620.325500,562.811890 621.869812,561.246277 625.616394,562.392395 
	C630.689148,563.944153 635.869629,565.162354 641.041565,566.360962 
	C642.829041,566.775330 645.215698,567.804688 645.538269,564.467346 
	C645.578369,564.052673 645.325073,563.609741 645.141663,562.937805 
	C644.575256,564.013672 644.145142,564.830688 643.444580,566.161499 
	C640.439880,561.060425 635.228638,563.359192 630.653931,561.134216 
M622.736816,357.015717 
	C619.270874,354.604126 614.920105,356.057953 610.185181,361.235138 
	C611.912598,364.084839 614.548584,365.555756 617.713074,366.333893 
	C621.036499,367.151184 624.379272,366.673340 626.211914,363.966248 
	C628.164856,361.081451 624.851746,359.387299 622.736816,357.015717 
M247.090424,323.501404 
	C247.572861,322.100006 248.390518,320.717163 248.469299,319.293427 
	C248.643280,316.149139 246.781662,313.940277 244.131210,312.657623 
	C241.392593,311.332306 239.501434,313.068634 237.745758,315.028351 
	C235.717407,317.292450 235.872559,319.539154 237.650818,321.717773 
	C239.481415,323.960541 240.419418,327.018372 243.283081,328.278351 
	C245.401016,327.565765 245.950165,325.739410 247.090424,323.501404 
M687.620300,549.808594 
	C687.472046,546.920044 685.733887,546.123352 683.202271,546.585999 
	C681.177979,546.955872 678.712524,547.362305 677.523804,545.814636 
	C674.492371,541.867920 670.966370,543.994690 667.611389,543.888000 
	C672.424744,546.953003 678.015991,547.267944 683.148010,549.101135 
	C685.329224,549.880371 686.936401,550.852356 687.193298,553.485168 
	C687.860413,560.323242 684.744934,565.283936 677.891968,566.930359 
	C681.533386,568.522522 684.330627,570.077820 686.299072,565.568970 
	C688.419800,560.711121 688.372253,555.690308 687.620300,549.808594 
M633.942871,683.337402 
	C636.283508,679.581177 636.283508,679.581177 635.514832,677.196716 
	C631.664490,682.032043 628.943787,687.894104 622.011597,690.232056 
	C628.319946,691.444580 630.006165,686.152344 633.942871,683.337402 
M576.793762,330.305634 
	C575.549805,331.295990 573.579834,331.367371 573.002319,333.260437 
	C573.800171,334.592377 574.739197,335.697937 576.574280,336.135498 
	C579.264038,333.618439 581.000793,330.384705 583.324158,326.493134 
	C580.789856,327.972900 579.088989,328.966064 576.793762,330.305634 
M201.845932,639.813721 
	C206.055252,637.685669 202.709747,636.425537 201.455154,634.580200 
	C198.592224,636.559631 196.002655,638.287720 193.569321,641.769836 
	C196.782898,641.016785 198.982544,640.501404 201.845932,639.813721 
M638.180542,489.520599 
	C638.829407,494.713684 639.409363,495.129791 644.338135,492.848267 
	C640.358948,492.972382 639.083496,491.175659 639.540710,487.937866 
	C639.878723,485.544647 642.920532,483.740112 640.827637,480.346863 
	C639.894836,483.418884 639.088379,486.074799 638.180542,489.520599 
M625.494080,337.797729 
	C628.903564,340.890167 631.409973,345.033356 635.840576,346.966797 
	C633.413391,343.476685 630.737427,340.259094 627.957092,337.134308 
	C626.888428,335.933258 626.780151,336.029602 625.494080,337.797729 
M445.532501,255.319214 
	C442.996765,256.045410 442.818726,257.955811 443.291138,260.049438 
	C443.559235,261.237488 444.621216,261.408569 445.675751,261.246094 
	C447.139862,261.020599 448.920654,260.959198 449.228271,259.143738 
	C449.591370,257.000854 448.290436,255.768723 445.532501,255.319214 
M614.499878,628.936035 
	C613.511475,630.641296 611.903381,632.177979 612.709045,634.859680 
	C615.513062,630.932983 618.529846,627.634460 617.752625,622.657288 
	C616.790527,624.546631 615.828491,626.435974 614.499878,628.936035 
M653.959045,538.896423 
	C651.719238,536.020569 649.097778,537.606079 646.545776,538.209961 
	C649.048523,538.096252 650.931152,541.601196 653.959045,538.896423 
M664.196045,570.196838 
	C663.436584,568.845764 662.677185,567.494629 661.674927,565.711548 
	C660.719788,567.787048 659.619324,569.457520 661.007080,571.127808 
	C661.855652,572.149170 663.314148,572.644104 664.196045,570.196838 
M577.024719,353.510529 
	C572.825806,353.766113 571.675354,355.649597 573.751953,359.558319 
	C575.566711,357.928619 576.510498,356.095215 577.024719,353.510529 
M671.570862,563.182190 
	C670.525085,563.063904 669.319946,562.066040 668.354431,564.184998 
	C670.393311,566.424377 672.783325,565.650085 676.379761,564.981079 
	C674.253845,564.163269 673.216492,563.764282 671.570862,563.182190 
z"/>
<path fill="#000000" opacity="1.000000" stroke="none" 
	d="
M256.528320,286.428558 
	C254.355011,282.913727 255.527603,280.929199 258.634857,279.371399 
	C268.430634,274.460480 268.499115,274.373779 273.771149,284.209534 
	C278.167419,292.411316 282.326599,300.740265 286.585815,309.015411 
	C287.263702,310.332489 287.793030,311.762756 289.609161,312.632233 
	C294.486908,309.747162 299.440918,306.760010 304.455048,303.877472 
	C306.662170,302.608643 306.619751,301.020050 305.961212,298.819580 
	C302.722351,287.996918 299.750092,277.093750 296.446320,266.291626 
	C295.242737,262.356445 296.113281,260.009094 299.986206,258.419403 
	C309.971100,254.320938 319.661224,249.524185 329.900238,246.013535 
	C332.945129,244.969528 334.258881,246.043350 334.991455,248.783691 
	C335.334229,250.066055 335.701660,251.356094 336.216827,252.575516 
	C337.896759,256.551910 336.728943,259.265533 332.843506,261.086090 
	C328.178406,263.271973 323.687958,265.854492 318.944672,267.842407 
	C314.827301,269.567993 313.514832,271.837616 316.357330,276.224762 
	C321.098877,275.423737 325.588684,273.115112 329.894531,270.967499 
	C335.023682,268.409210 336.020538,272.195618 337.478271,274.966919 
	C339.013306,277.885101 340.338470,281.253387 336.030975,283.458160 
	C332.478729,285.276306 329.080872,287.424744 325.442291,289.038147 
	C321.157745,290.937958 320.553497,293.523590 323.296021,297.439575 
	C329.768036,296.574921 335.264343,292.202667 343.214478,291.128662 
	C339.639221,296.151947 341.671265,299.465210 344.581085,302.911407 
	C346.336670,304.990601 344.510620,306.469391 342.423340,307.358826 
	C335.845276,310.161896 329.451538,313.515167 322.683075,315.727325 
	C311.233612,319.469421 301.848419,326.624146 292.015503,333.061218 
	C283.718750,338.492615 283.373688,338.559052 278.820404,329.788177 
	C271.389343,315.473969 264.045685,301.114319 256.528320,286.428558 
z"/>
<path fill="#000000" opacity="1.000000" stroke="none" 
	d="
M501.010742,723.001831 
	C500.959778,720.463013 500.282990,717.971191 499.063141,715.840820 
	C496.713257,711.736938 498.513428,709.948853 502.171936,708.272461 
	C511.694061,703.909424 511.672424,703.796387 514.598633,713.615845 
	C519.110901,728.757507 523.590210,743.909058 528.052734,759.065430 
	C528.324707,759.989197 528.647278,761.085754 528.397522,761.941772 
	C527.505127,765.000061 515.363953,770.405884 511.575073,769.385803 
	C512.510132,765.871155 516.363708,765.525024 518.234314,763.170349 
	C519.523926,761.546875 522.159241,760.446960 521.405151,757.914612 
	C520.675598,755.464722 518.234497,756.926941 516.576965,756.601929 
	C513.720459,756.041565 511.722443,754.747009 510.972778,751.692566 
	C510.343903,749.130310 509.331390,746.662231 508.492462,744.163635 
	C500.741394,746.494202 498.370026,751.772644 500.809570,761.950806 
	C495.225464,760.677856 490.701263,761.722290 489.594513,768.237488 
	C484.372589,763.968262 482.254272,754.060913 485.409515,746.768616 
	C487.231659,742.557312 486.576324,740.174866 483.005646,737.678284 
	C479.893738,735.502686 477.171661,732.769470 473.438263,729.561707 
	C474.612213,739.554138 475.757172,748.629272 476.718811,757.723816 
	C477.348022,763.674561 477.919586,769.646240 478.127319,775.622009 
	C478.288269,780.251465 476.023468,783.570618 471.019928,783.279480 
	C467.391266,783.068359 464.517059,784.221252 461.314056,785.590698 
	C458.046326,786.987854 454.220947,787.080688 450.176331,787.830444 
	C450.605408,784.588501 452.902100,783.959778 455.021942,783.279480 
	C457.077148,782.620056 459.219910,782.236328 461.283112,781.598450 
	C464.642700,780.559631 465.925262,777.945801 464.635406,774.969482 
	C463.182587,771.617004 460.114929,773.085754 458.298767,774.520264 
	C454.080566,777.852173 449.609253,776.124390 444.393188,776.434814 
	C446.614777,773.159790 449.513153,772.892700 452.017731,772.020935 
	C453.899689,771.365906 455.899323,771.053894 457.794403,770.430542 
	C462.657288,768.831177 463.969482,765.244324 461.530304,760.770386 
	C460.813599,759.455811 459.832397,759.299744 458.619934,759.556641 
	C454.880219,760.348694 451.060852,760.907532 447.440002,762.076233 
	C444.054138,763.169128 442.443237,762.584045 441.070312,759.035461 
	C438.114929,751.396729 438.790314,749.341675 446.356476,746.925110 
	C458.698120,742.983276 458.595276,742.997925 456.926422,731.219055 
	C456.509674,728.277527 454.210876,724.257568 459.284241,722.874390 
	C468.243195,720.431641 469.339844,718.597534 473.385254,725.081848 
	C475.836487,723.696777 476.686096,720.976868 478.409729,719.001953 
	C480.864136,716.189697 482.940155,715.645447 485.819305,718.592468 
	C489.067352,721.916992 492.704681,724.867554 496.241364,727.900696 
	C497.769897,729.211731 499.480560,730.598328 501.500671,728.695923 
	C503.316711,726.985779 502.964447,725.160522 501.241089,723.171265 
	C500.977661,722.952942 500.997925,722.987000 501.010742,723.001831 
z"/>
<path fill="#000000" opacity="1.000000" stroke="none" 
	d="
M387.203186,764.105347 
	C385.457672,770.604187 383.812531,776.704529 382.168579,782.805176 
	C381.581482,784.983887 380.808533,787.201233 378.059723,787.038025 
	C369.608978,786.536133 360.946228,787.061279 352.818390,784.525452 
	C339.603149,780.402466 337.489502,765.327454 348.600159,755.648499 
	C350.749725,753.776062 352.236053,752.352539 350.410126,749.527832 
	C344.520325,740.416016 354.178162,723.476501 366.908020,724.042236 
	C375.246552,724.412781 383.397736,726.257324 391.451843,728.234070 
	C395.212128,729.156921 396.009766,732.506653 394.909882,736.310791 
	C392.277588,745.414795 389.827576,754.571472 387.203186,764.105347 
M365.886688,771.052612 
	C369.197327,771.850708 370.985962,769.603027 372.906006,767.761292 
	C372.099152,762.203918 368.370728,762.767334 364.679108,763.605957 
	C362.474518,764.106750 360.560120,765.396057 360.486572,767.885437 
	C360.391876,771.090149 363.113647,770.648926 365.886688,771.052612 
M375.719635,740.597046 
	C373.592743,740.082764 371.443207,740.065552 369.473572,741.015076 
	C367.389709,742.019653 366.154388,743.870850 366.455750,746.189941 
	C366.794800,748.798828 369.036316,748.776550 371.036835,748.796814 
	C375.510193,748.842163 376.591858,747.236328 375.719635,740.597046 
z"/>
<path fill="#000000" opacity="1.000000" stroke="none" 
	d="
M215.014801,426.978363 
	C208.091660,434.227417 199.337662,437.139160 190.149109,433.744843 
	C178.331345,429.379364 166.961563,423.585205 160.176544,411.926208 
	C156.184708,405.066803 154.389297,398.024689 159.279877,390.890900 
	C163.716110,384.419861 169.832825,380.476074 177.908340,381.840607 
	C192.709763,384.341614 205.256088,390.973785 213.850662,403.730347 
	C218.671997,410.886444 217.722382,418.562927 215.016785,426.628693 
	C214.971252,427.027191 215.001114,426.995392 215.014801,426.978363 
M201.568237,414.664551 
	C195.136673,404.507141 185.025864,399.725494 174.119614,396.440521 
	C170.838348,395.452209 169.647995,398.081757 170.674606,401.083984 
	C172.023987,405.030029 181.438431,411.214569 186.621613,411.370667 
	C182.909988,407.373505 175.982468,407.218781 175.202301,399.837708 
	C184.488251,402.645355 192.215683,406.681030 198.220169,413.716949 
	C194.892975,418.056519 191.806641,412.779907 188.344101,413.532318 
	C190.412430,416.391296 193.410507,416.703735 195.896011,417.890778 
	C198.654282,419.208038 200.753265,418.598602 201.568237,414.664551 
z"/>
<path fill="#000000" opacity="1.000000" stroke="none" 
	d="
M261.405945,684.418457 
	C249.729675,693.840088 238.281265,702.984131 226.952591,712.274231 
	C223.809494,714.851746 221.368317,715.629883 218.042923,712.263306 
	C213.973480,708.143494 209.088898,704.874573 205.007965,700.692505 
	C195.853256,691.310730 196.511002,681.417419 207.069077,673.599854 
	C211.858490,670.053711 217.123520,667.655090 223.305344,668.544128 
	C225.561996,668.868713 226.745941,667.918518 227.462570,665.948242 
	C228.827896,662.194458 230.317184,658.483093 231.583374,654.696716 
	C232.789795,651.089111 234.916626,649.472778 238.747910,650.720398 
	C240.481033,651.284912 242.222168,651.833984 243.983063,652.302185 
	C247.799622,653.316895 248.464996,655.468567 247.035507,659.058350 
	C245.192749,663.685974 243.786514,668.489136 242.244553,673.233643 
	C241.770645,674.691833 241.473907,676.194336 243.185303,677.189697 
	C244.669708,678.053101 246.048950,677.869507 247.346115,676.819946 
	C249.796783,674.836914 252.368210,672.979553 254.650192,670.817444 
	C257.663361,667.962708 260.338104,667.605835 263.023834,671.127014 
	C263.626892,671.917725 264.309326,672.677185 265.070343,673.313232 
	C268.590546,676.255310 268.785034,678.960571 264.703613,681.588501 
	C263.595276,682.302124 262.681915,683.318604 261.405945,684.418457 
M231.474564,689.727722 
	C230.879532,685.565857 227.220734,685.186768 224.313538,684.521851 
	C221.228775,683.816345 217.987213,684.475769 215.545822,686.886658 
	C214.267044,688.149536 214.633972,689.518250 215.671982,690.889587 
	C219.076614,695.387329 222.671021,695.963013 227.359772,692.679688 
	C228.579239,691.825806 229.818100,690.999634 231.474564,689.727722 
z"/>
<path fill="#000000" opacity="1.000000" stroke="none" 
	d="
M164.705200,530.235229 
	C168.413162,530.844116 172.113068,529.325439 175.341415,531.687256 
	C176.049805,532.205444 177.265747,531.580994 178.019760,530.808594 
	C179.175369,529.624817 180.307739,520.372986 179.029953,519.309326 
	C176.939636,517.569336 176.341370,515.392151 175.584930,512.981201 
	C174.698654,510.156372 172.452515,509.758209 170.019089,511.464722 
	C167.017303,513.569885 164.047104,513.576294 160.496109,511.543671 
	C163.843567,508.813690 167.640793,508.947876 171.031921,507.978119 
	C177.098297,506.243378 183.187256,504.582550 189.294769,502.998749 
	C192.811584,502.086792 195.372177,502.951874 195.188431,507.201721 
	C195.016876,511.169678 197.265076,515.379578 195.285950,518.992065 
	C193.047516,523.077881 187.634216,519.997070 184.414474,522.546936 
	C184.475159,531.294128 185.645187,533.043091 193.730179,536.148071 
	C195.466293,536.814819 196.903229,537.966431 196.716125,539.719910 
	C195.866165,547.685181 200.090607,554.451111 201.667511,561.830017 
	C202.882675,567.516235 202.188034,568.337830 196.512741,569.369019 
	C181.955063,572.013977 167.404846,574.676819 152.723450,576.567505 
	C150.819626,576.812683 149.452759,577.827209 148.144089,574.824036 
	C146.879944,571.923096 142.324371,573.078125 140.025955,576.704651 
	C138.232452,573.275879 137.472977,569.671692 137.347778,566.088501 
	C137.217804,562.368469 139.983627,561.310425 143.316986,560.825134 
	C156.468689,558.910522 169.595551,556.824097 182.723389,554.749146 
	C184.014221,554.545105 185.248672,553.984314 186.634018,553.068115 
	C174.100937,549.912720 161.940338,545.773987 149.038910,541.433228 
	C153.234482,539.233093 156.310196,540.362366 159.178192,542.126892 
	C161.412674,543.501709 163.713379,544.293457 166.276276,543.836426 
	C169.376892,543.283447 173.524017,543.200989 169.885269,538.239258 
	C168.943176,536.954651 170.556427,536.202820 170.509155,535.285461 
	C169.151276,532.615906 164.681915,534.126099 164.705200,530.235229 
M186.688278,512.304749 
	C187.176880,511.870422 187.663788,511.434174 188.154617,511.002411 
	C188.615753,510.596649 189.813019,510.676636 189.131027,509.207214 
	C185.651886,511.669647 180.183441,509.954254 178.253647,515.210754 
	C180.575806,513.069580 184.293335,515.960022 186.688278,512.304749 
z"/>
<path fill="#000000" opacity="1.000000" stroke="none" 
	d="
M236.828949,715.140503 
	C237.345978,714.235779 237.701950,713.672302 238.089493,713.131470 
	C244.213440,704.586121 248.212357,704.459412 255.248505,712.366150 
	C257.511597,714.909363 255.915146,716.565796 254.403839,718.395081 
	C253.136169,719.929382 251.327698,721.514343 252.898605,723.609619 
	C254.336899,725.527893 256.631256,724.959473 258.429138,724.141663 
	C267.416626,720.053589 273.873077,713.219116 278.127686,704.486267 
	C280.161926,700.310852 277.630798,698.080444 272.265320,698.950867 
	C276.636597,705.640503 269.420135,707.145752 266.925049,710.715759 
	C264.392700,714.339050 261.432617,712.453125 258.668610,710.676636 
	C257.268341,709.776733 255.755692,709.034546 254.428375,708.041260 
	C248.775314,703.811157 248.105789,699.453308 252.630859,694.036865 
	C262.383392,682.363220 277.477417,679.203003 288.746002,690.295532 
	C294.711090,696.167358 296.464020,702.372498 292.722839,709.791626 
	C285.536346,724.043152 275.844208,735.905945 258.858459,738.761047 
	C251.325989,740.027161 244.534271,737.608826 239.323364,732.082458 
	C234.864944,727.354126 233.589966,721.653992 236.828949,715.140503 
z"/>
<path fill="#000000" opacity="1.000000" stroke="none" 
	d="
M294.665680,725.806396 
	C296.729767,724.402527 298.605743,724.219727 301.165375,725.538513 
	C300.563232,723.012146 297.914856,720.926880 302.753326,718.826355 
	C296.503235,718.207886 292.400177,717.979553 290.039429,722.438477 
	C288.888702,721.867676 288.589752,721.210693 288.855652,720.574341 
	C292.122772,712.755310 304.999664,704.808899 313.269043,705.920471 
	C326.596344,707.712036 333.151978,717.294495 330.203857,730.211853 
	C327.325012,742.825684 320.383972,753.835083 309.665161,761.777710 
	C298.034271,770.396057 283.273987,766.563049 278.822815,753.616211 
	C275.678802,744.471436 279.052582,736.144043 284.034698,728.623413 
	C286.453888,724.971558 287.970184,729.495117 290.199585,730.425903 
	C291.682739,729.111328 291.230469,725.693237 294.665680,725.806396 
M313.466705,729.850464 
	C313.831604,728.927307 314.349457,728.032837 314.529358,727.074890 
	C314.894501,725.130249 315.407288,722.972961 313.287506,721.688843 
	C311.335999,720.506775 309.350037,721.240723 307.730103,722.485352 
	C306.305237,723.579956 305.079865,724.965210 303.891113,726.330750 
	C299.497345,731.377808 296.261047,737.129211 293.952301,743.382690 
	C292.904114,746.221741 290.542358,749.864075 293.787323,751.942383 
	C296.868286,753.915527 299.625092,750.650452 301.708313,748.449280 
	C306.641022,743.237488 310.257019,737.107788 313.466705,729.850464 
z"/>
<path fill="#000000" opacity="1.000000" stroke="none" 
	d="
M358.022064,261.012177 
	C357.824493,259.721924 357.626892,258.431671 357.402435,256.965881 
	C353.869873,256.628967 351.105591,258.382385 348.305298,259.561096 
	C344.711914,261.073639 343.337036,259.679810 342.869751,256.360535 
	C342.684570,255.044968 342.551239,253.719696 342.455444,252.394424 
	C342.219788,249.132828 339.752197,245.356735 343.751160,242.918015 
	C348.628326,239.943771 358.216644,240.362411 361.430511,243.311371 
	C361.534058,245.326584 358.746979,246.440811 359.880371,249.223618 
	C366.894165,249.415817 364.949890,254.299469 364.212006,258.619507 
	C364.128387,259.109192 363.893433,259.575409 363.829742,260.065643 
	C363.484314,262.725555 361.698944,265.977966 365.316620,267.484253 
	C368.622498,268.860748 369.957520,266.128967 371.131897,263.580536 
	C371.721832,262.300323 372.868988,261.615845 374.311707,261.690063 
	C377.722229,272.759430 376.790619,284.373993 378.909607,295.587189 
	C379.403534,298.200958 377.551575,299.944122 374.929382,300.475189 
	C372.491058,300.968994 370.024384,301.322723 367.507385,301.748749 
	C365.912933,300.309387 365.525726,298.613129 365.542480,296.440186 
	C365.582642,291.225586 365.420776,286.246338 361.904419,281.509949 
	C359.991943,278.933899 360.606689,274.482117 360.080048,270.876587 
	C359.625305,267.763336 359.824554,264.534210 358.216492,261.290253 
	C357.998444,260.993896 358.022064,261.012177 358.022064,261.012177 
z"/>
<path fill="#000000" opacity="1.000000" stroke="none" 
	d="
M424.890808,291.669830 
	C424.589447,289.496582 425.433197,287.571014 423.771606,285.617737 
	C420.114319,286.234253 416.206482,286.739716 412.377167,287.596283 
	C410.100769,288.105469 409.504913,290.348053 409.237946,292.295532 
	C408.680206,296.364380 406.278473,297.495361 402.595428,297.091949 
	C400.779510,296.893036 398.935303,296.918335 397.130707,296.657013 
	C392.972076,296.054840 391.230347,293.708801 392.690674,289.630951 
	C393.924377,286.185974 395.455444,282.847504 397.254700,278.494751 
	C399.560242,283.501282 395.286804,286.715332 396.787933,291.035461 
	C400.521088,287.235596 402.498840,282.187622 407.234100,279.067474 
	C408.403351,282.007294 410.607269,281.938019 413.218292,281.995087 
	C417.469543,282.087982 421.879730,281.022430 426.003326,283.056549 
	C427.044159,283.569946 428.347015,283.113129 428.399658,282.064331 
	C428.574280,278.585266 431.690948,275.374878 429.196899,271.581390 
	C432.384796,271.336151 433.073303,269.578064 433.481934,266.675446 
	C434.413666,260.056671 432.252716,253.856277 431.700958,247.456299 
	C431.520721,245.366348 430.185059,243.873688 428.637177,242.492859 
	C427.333893,241.330261 426.361725,239.669312 428.000183,238.196304 
	C429.719940,236.650177 431.136261,238.328339 432.284943,239.368729 
	C434.250092,241.148590 434.497620,243.725296 434.977020,246.186752 
	C437.710663,260.221802 439.741974,274.365234 441.623718,288.533386 
	C442.121704,292.283234 443.540100,296.634430 438.610504,298.285919 
	C432.672058,300.275482 426.761017,297.285187 424.890808,291.669830 
M434.657806,283.854858 
	C434.050446,282.599030 433.997223,280.805450 431.915833,280.940643 
	C429.931641,286.037415 429.931641,286.037415 436.626068,294.009674 
	C435.982147,290.531921 435.417847,287.484039 434.657806,283.854858 
z"/>
<path fill="#000000" opacity="1.000000" stroke="none" 
	d="
M357.988525,260.982544 
	C358.556702,268.788635 357.262238,276.672394 359.875214,284.455048 
	C361.034393,287.907593 360.204041,292.036957 360.226654,295.859406 
	C360.244141,298.807495 359.964203,301.812103 363.218048,304.214325 
	C359.526703,304.927399 356.852295,304.997101 354.839233,302.495667 
	C353.494049,302.894196 354.352356,304.337067 353.383270,305.061737 
	C353.256470,304.473389 353.049591,304.029144 353.086670,303.606323 
	C353.501129,298.880371 352.378845,294.420624 350.819244,290.027069 
	C349.687927,286.839935 343.314026,285.902710 339.026337,288.507172 
	C337.431915,289.475647 336.120728,290.767059 333.729706,289.311859 
	C337.596527,286.176208 342.390045,283.623108 341.085693,277.530945 
	C339.584625,270.520111 336.166412,266.110931 328.174103,268.493347 
	C328.075653,267.613617 327.923126,267.095428 328.024994,267.039368 
	C332.749298,264.438507 336.846405,260.191254 343.041321,261.467712 
	C347.825165,262.453400 352.594391,261.015808 357.701508,261.104919 
	C358.022064,261.012177 357.998444,260.993896 357.988525,260.982544 
z"/>
<path fill="#000000" opacity="1.000000" stroke="none" 
	d="
M346.465576,739.085754 
	C345.251923,743.283020 340.810516,744.415283 339.580841,748.795410 
	C338.477753,752.724854 336.219727,756.654602 334.771179,760.678955 
	C332.531616,766.900940 330.767700,773.313110 324.404388,777.243652 
	C315.923431,774.444458 316.074768,764.182190 325.635406,751.774292 
	C327.386841,755.953125 325.009216,759.125183 323.676300,762.219543 
	C324.513092,763.889465 325.635895,763.769226 326.753021,763.181091 
	C330.395294,761.263733 332.810791,753.215210 332.945526,749.111694 
	C333.080627,744.996643 334.313293,740.220215 337.344391,737.207764 
	C342.325989,732.257019 347.811920,727.854126 351.005463,721.174438 
	C351.218689,727.551147 348.419739,733.035339 346.465576,739.085754 
z"/>
<path fill="#000000" opacity="1.000000" stroke="none" 
	d="
M152.764587,389.914062 
	C156.980026,381.319214 164.506363,377.398926 172.824539,374.483521 
	C171.402451,369.823273 170.138046,365.757263 170.329315,360.967896 
	C175.078064,362.864838 171.851288,369.361206 176.739243,370.665802 
	C180.872803,371.769073 181.310944,376.598694 185.079773,378.677216 
	C181.636383,381.372284 178.252609,380.104614 175.138107,380.189209 
	C170.024094,380.328064 164.668549,378.871735 160.625916,383.700500 
	C157.487183,387.449585 154.762787,391.896027 153.245834,396.053070 
	C151.937759,399.637726 152.274323,404.935394 155.477524,409.564667 
	C158.727539,414.261597 163.814545,418.193695 164.614838,425.365417 
	C154.317719,422.461548 145.990829,425.451569 139.339539,433.104401 
	C138.440399,429.542389 140.252563,426.258972 144.942078,423.368225 
	C154.097870,417.724365 153.544846,417.890472 150.362930,407.297333 
	C148.714371,401.809021 148.524353,395.483521 152.764587,389.914062 
z"/>
<path fill="#000000" opacity="1.000000" stroke="none" 
	d="
M220.001282,313.006714 
	C219.235153,312.866119 219.303268,310.799377 217.892059,312.090057 
	C213.883560,315.756165 213.803833,319.510590 217.149139,323.980621 
	C218.220367,325.411987 220.780365,326.273193 219.718887,329.216217 
	C217.397293,329.553070 215.475967,329.444122 213.507507,327.162933 
	C210.904999,324.146912 202.149353,324.447357 199.304031,327.325470 
	C198.085175,328.558350 196.801865,330.314758 195.266953,328.943268 
	C193.296158,327.182312 195.460587,325.823364 196.601349,324.462097 
	C202.258331,317.711670 210.790848,314.129150 215.915710,306.745911 
	C217.891800,303.898987 220.481934,301.478668 222.788940,298.861084 
	C224.987976,296.365997 227.235779,295.491577 230.014725,298.893921 
	C225.243271,302.344666 219.966125,305.412689 219.985718,312.637146 
	C219.965942,313.036224 219.988678,313.014252 220.001282,313.006714 
z"/>
<path fill="#000000" opacity="1.000000" stroke="none" 
	d="
M170.278152,445.925659 
	C169.390549,440.178223 174.768845,436.474640 173.941620,431.241425 
	C181.127472,430.668304 182.399719,432.406921 179.850739,438.480927 
	C177.993378,442.906952 179.660751,446.525299 183.241211,449.257660 
	C185.417038,450.918182 187.051285,452.769745 186.003769,455.518127 
	C184.869843,458.493256 182.003510,456.951385 179.881058,457.291687 
	C172.447952,458.483368 167.922348,453.208069 161.864258,449.335846 
	C165.264160,448.659332 168.235626,448.742279 170.278152,445.925659 
z"/>
<path fill="#000000" opacity="1.000000" stroke="none" 
	d="
M163.047821,549.739258 
	C165.704041,549.754211 168.215515,550.054626 168.084732,552.883362 
	C167.953400,555.723694 165.462906,556.329163 162.927475,556.306213 
	C159.778442,556.277710 156.628845,556.321106 153.479507,556.316101 
	C151.148361,556.312439 149.122940,556.593689 147.060150,558.227112 
	C144.603256,560.172607 141.602280,559.671082 138.806473,557.913269 
	C140.270569,555.097107 143.226273,555.450745 145.236664,554.141602 
	C148.929581,551.736755 148.994263,550.021606 145.266190,547.630798 
	C143.944839,546.783447 142.010361,546.674255 141.445816,543.854858 
	C149.173752,544.178101 155.903000,547.030945 163.047821,549.739258 
z"/>
<path fill="#000000" opacity="1.000000" stroke="none" 
	d="
M164.094162,577.708496 
	C167.310684,577.030090 169.916763,574.090393 173.086197,576.699524 
	C173.286911,578.116821 172.257614,578.512695 171.409164,578.930542 
	C165.508194,581.836121 164.732590,584.744446 169.271225,591.512390 
	C171.078064,594.206604 171.308426,597.122314 172.922562,600.073059 
	C169.352402,601.201538 167.168610,602.657104 165.330078,597.409912 
	C163.455215,592.058960 160.414032,586.948547 157.914322,581.600525 
	C159.897903,580.229248 161.320969,578.294373 164.094162,577.708496 
z"/>
<path fill="#000000" opacity="1.000000" stroke="none" 
	d="
M478.578979,751.400513 
	C476.948090,746.359863 478.580475,741.377014 475.194611,735.967712 
	C483.929779,740.731445 485.298279,745.025696 481.835236,752.495850 
	C480.936493,754.434448 479.806427,756.471069 482.287079,758.217163 
	C482.652893,758.474670 482.991272,759.013733 483.032410,759.451538 
	C483.367249,763.015747 483.136780,766.602478 485.723724,769.729553 
	C486.531036,770.705444 485.610626,772.863159 484.268738,774.974121 
	C477.838867,767.969421 479.521942,759.577209 478.578979,751.400513 
z"/>
<path fill="#000000" opacity="1.000000" stroke="none" 
	d="
M190.721909,351.233459 
	C189.482239,351.198517 188.634659,351.285950 187.832443,351.133911 
	C186.344772,350.852020 184.039276,351.675171 183.833618,349.312103 
	C183.640335,347.090973 185.727798,346.884003 187.367081,346.739197 
	C190.750168,346.440369 192.092331,344.782959 191.315613,341.417938 
	C190.952377,339.844360 191.280533,338.447479 193.148056,337.433807 
	C195.481735,340.946564 197.891983,344.459991 200.170746,348.056702 
	C201.193893,349.671600 202.737244,351.541168 200.509247,353.267181 
	C198.785645,354.602448 196.813858,354.631409 195.126282,352.942719 
	C194.016769,351.832458 192.709366,351.237549 190.721909,351.233459 
z"/>
<path fill="#000000" opacity="1.000000" stroke="none" 
	d="
M380.544373,242.818344 
	C379.703339,237.271820 375.071930,240.448700 371.458954,238.406158 
	C375.884460,236.123703 379.612640,236.667252 383.232391,237.827988 
	C386.124054,238.755234 386.635132,241.560150 386.280273,244.009308 
	C385.832123,247.102676 383.828461,249.399414 380.642700,250.263229 
	C379.255890,250.639252 377.597534,251.335876 376.653809,249.558228 
	C375.834900,248.015808 377.116333,247.138245 378.113678,246.267700 
	C379.118256,245.390854 380.128448,244.525589 380.544373,242.818344 
z"/>
<path fill="#000000" opacity="1.000000" stroke="none" 
	d="
M426.940063,270.094604 
	C424.133240,274.467712 420.360626,275.180328 416.073181,273.549103 
	C413.236053,272.469635 413.297852,272.307190 415.567291,268.391022 
	C416.330566,271.793518 418.529083,272.610077 421.149475,271.571960 
	C423.911316,270.477875 421.979706,268.115936 422.066345,266.323242 
	C422.152039,264.549500 421.389526,262.698761 422.801605,260.777527 
	C425.784698,261.207611 427.172455,263.916016 429.930695,265.851471 
	C427.832458,266.615082 426.823486,267.862366 426.940063,270.094604 
z"/>
<path fill="#000000" opacity="1.000000" stroke="none" 
	d="
M344.713928,720.875488 
	C343.196655,721.799683 341.942017,722.536377 341.083740,723.040344 
	C339.768402,723.082031 339.493744,722.508972 339.168488,721.915588 
	C338.372009,720.462646 335.620789,720.274841 336.420654,717.808228 
	C336.829346,716.547913 338.004547,715.995422 339.164856,716.240356 
	C341.628357,716.760254 344.286621,716.999390 346.007355,719.194580 
	C346.118317,719.336121 345.340820,720.174072 344.713928,720.875488 
z"/>
<path fill="#000000" opacity="1.000000" stroke="none" 
	d="
M509.046936,750.326599 
	C509.437164,753.590698 506.947021,754.866943 505.491852,757.039062 
	C503.385010,755.659607 500.762207,754.546448 503.052917,751.517090 
	C504.453522,749.664795 505.967865,746.403748 509.046936,750.326599 
z"/>
<path fill="#000000" opacity="1.000000" stroke="none" 
	d="
M327.764618,742.294250 
	C329.139557,738.774597 330.438934,735.590881 331.789551,732.281677 
	C334.511383,734.722473 334.066986,736.588867 329.127411,745.078613 
	C327.280487,745.074707 327.612183,743.775269 327.764618,742.294250 
z"/>
<path fill="#000000" opacity="1.000000" stroke="none" 
	d="
M338.014771,760.928101 
	C336.692200,763.990356 335.494263,766.697632 334.023590,770.021301 
	C333.393707,763.643982 337.425903,759.440186 339.037140,754.427124 
	C340.390289,756.748840 338.661377,758.572021 338.014771,760.928101 
z"/>
<path fill="#000000" opacity="1.000000" stroke="none" 
	d="
M259.615906,716.406677 
	C261.327393,715.875183 262.531982,715.984863 263.067627,718.107605 
	C261.265839,719.327454 259.357147,720.619751 257.448425,721.911987 
	C257.201630,721.737976 256.954865,721.564026 256.708069,721.390015 
	C257.583832,719.786804 258.459564,718.183594 259.615906,716.406677 
z"/>
<path fill="#000000" opacity="1.000000" stroke="none" 
	d="
M521.297974,328.196289 
	C505.470551,321.831238 504.647461,307.970886 511.452209,295.344818 
	C516.567200,285.854004 523.991455,278.399261 534.236206,273.933960 
	C542.935791,270.142151 552.920349,270.960175 559.856995,277.264862 
	C569.938965,286.428375 566.540283,297.788940 558.029907,305.362000 
	C557.063965,306.221588 555.940979,306.318665 554.762939,305.926270 
	C554.293213,305.769806 553.829590,305.553772 553.412476,305.287598 
	C550.206970,303.242096 545.722412,301.875214 544.139160,298.944672 
	C542.099548,295.169464 547.808533,293.413757 549.237000,290.200775 
	C549.633362,289.309143 550.402588,288.589447 550.043152,287.335876 
	C547.616272,285.087402 544.947205,286.260773 542.780945,287.569122 
	C534.883667,292.338715 528.887451,298.866608 525.784363,307.714478 
	C524.954224,310.081512 524.321472,312.710052 526.566467,314.689331 
	C528.688843,316.560486 531.231995,316.111237 533.649353,315.206940 
	C535.982727,314.334106 538.411011,313.578857 540.543396,312.335785 
	C544.086426,310.270447 545.343018,312.103851 546.161377,315.135193 
	C547.950134,321.760651 547.756348,322.120331 541.365417,325.519714 
	C535.133057,328.834778 528.670288,330.362091 521.297974,328.196289 
z"/>
<path fill="#000000" opacity="1.000000" stroke="none" 
	d="
M612.617310,386.946564 
	C614.402222,384.935486 615.459595,383.214569 618.489624,385.269135 
	C620.395813,386.561768 623.586731,386.279633 626.028748,384.849182 
	C627.029419,384.263000 627.857605,384.238983 628.690002,385.241699 
	C624.647644,389.136719 619.209290,390.905670 614.332031,392.648132 
	C610.375122,394.061737 612.109070,389.483307 612.617310,386.946564 
z"/>
<path fill="#000000" opacity="1.000000" stroke="none" 
	d="
M601.023010,685.023193 
	C600.454956,682.088562 599.016968,679.548157 597.042297,677.361389 
	C596.152039,676.375488 595.816040,674.480713 596.478821,674.611389 
	C600.237427,675.352356 602.606018,670.598694 606.903503,672.047546 
	C604.730896,675.673218 602.872864,678.928589 603.552673,682.927551 
	C603.779175,684.259888 602.402893,684.285950 601.282227,684.853699 
	C600.975647,684.987305 601.007690,685.010376 601.023010,685.023193 
z"/>
<path fill="#000000" opacity="1.000000" stroke="none" 
	d="
M469.421692,305.834747 
	C465.320068,302.092834 468.090210,298.023010 469.413940,295.097595 
	C470.365173,292.995361 473.853119,290.031036 477.817993,292.226837 
	C481.065125,294.025146 483.175018,296.445526 481.939423,300.239441 
	C480.673492,304.126617 477.875549,306.677856 473.591949,306.916504 
	C472.334534,306.986542 471.036926,306.335144 469.421692,305.834747 
z"/>
<path fill="#000000" opacity="1.000000" stroke="none" 
	d="
M661.853394,447.320190 
	C654.648804,450.110779 647.553162,450.866852 640.283875,450.320892 
	C638.720276,450.203491 636.961853,450.799347 635.133301,448.672729 
	C638.441162,446.993988 641.438538,444.490021 644.725464,444.022827 
	C650.411926,443.214630 656.277893,443.658264 662.068787,443.603424 
	C663.353455,443.591278 664.390198,444.132538 664.570740,445.503265 
	C664.806335,447.292297 663.314148,447.066345 661.853394,447.320190 
z"/>
<path fill="#000000" opacity="1.000000" stroke="none" 
	d="
M591.056702,702.603577 
	C587.539612,703.496521 584.137451,704.224243 581.478088,700.881287 
	C581.092651,700.396851 579.626404,700.772156 578.337830,700.862915 
	C578.157593,697.006226 576.914429,693.462280 574.253296,690.583801 
	C572.361633,688.537720 571.801636,686.013184 573.635925,684.441650 
	C575.900696,682.501343 577.353821,684.465149 578.914856,686.682129 
	C582.709229,692.070740 587.744873,696.522400 591.056702,702.603577 
z"/>
<path fill="#000000" opacity="1.000000" stroke="none" 
	d="
M616.670837,361.234985 
	C617.607544,359.467896 618.560608,358.154144 620.738892,358.663208 
	C621.437378,360.026978 622.130676,361.454071 621.609192,363.491882 
	C619.568420,363.786011 616.902222,366.264862 616.670837,361.234985 
z"/>
<path fill="#000000" opacity="1.000000" stroke="none" 
	d="
M245.624878,317.267792 
	C246.261780,319.701752 244.948227,321.394012 244.605576,323.418579 
	C241.333694,322.728760 239.020279,321.070862 240.138031,317.658600 
	C241.062302,314.837036 243.406906,315.532471 245.624878,317.267792 
z"/>
<path fill="#000000" opacity="1.000000" stroke="none" 
	d="
M223.881592,692.782959 
	C221.426819,692.563293 221.082382,690.580627 219.654678,689.355347 
	C222.251068,686.685486 224.715988,688.229004 227.851364,688.446045 
	C226.358429,690.197693 225.285110,691.456909 223.881592,692.782959 
z"/>
<path fill="#000000" opacity="1.000000" stroke="none" 
	d="
M303.909851,731.088745 
	C306.090118,728.672852 307.533936,725.856323 310.964935,725.660706 
	C313.144257,730.760437 301.733276,746.917480 292.863892,749.740601 
	C297.001343,743.067383 298.649231,736.326721 303.909851,731.088745 
z"/>
</svg>